<?xml version="1.0" standalone="no"?>
<!DOCTYPE svg PUBLIC "-//W3C//DTD SVG 1.1//EN" "http://www.w3.org/Graphics/SVG/1.1/DTD/svg11.dtd" >
<svg>
<metadata>
Created by FontForge 20090914 at Fri Feb 24 08:46:43 2012
 By root
4.1 Copyright 1992 Software Complement                                                                
</metadata>
<defs>
<font id="RockoUltraFLF" horiz-adv-x="235" >
  <font-face 
    font-family="RockoUltraFLF"
    font-weight="500"
    font-stretch="normal"
    units-per-em="1000"
    panose-1="2 0 6 3 3 0 0 2 0 4"
    ascent="800"
    descent="-200"
    x-height="560"
    cap-height="750"
    bbox="-67 -319 1356 1015"
    underline-thickness="75"
    underline-position="-113"
    unicode-range="U+0005-U+E00A"
  />
<missing-glyph horiz-adv-x="500" 
 />
    <glyph glyph-name=".notdef" horiz-adv-x="500" 
 />
    <glyph glyph-name="breve" horiz-adv-x="303" 
d="M20 725q0 -31 10.5 -55t28 -41t41.5 -26t51 -9t51 10.5t42 28t28.5 41.5t10.5 51q0 16 -11 27t-27 11t-26.5 -11t-10.5 -27q0 -23 -17 -39.5t-40 -16.5t-39.5 16.5t-16.5 39.5q0 16 -11 27t-27 11t-26.5 -11t-10.5 -27z" />
    <glyph glyph-name="dotaccent" 
d="M20 469q0 -41 28 -69.5t69 -28.5t69.5 28.5t28.5 69.5q0 20 -7.5 37.5t-21 31t-31.5 21t-38 7.5t-38 -7.5t-31 -21t-20.5 -31t-7.5 -37.5z" />
    <glyph glyph-name="ring" horiz-adv-x="198" 
d="M99 763q-33 0 -56 -23t-23 -56t23 -56t56 -23t56 23t23 56t-23 56t-56 23zM99 723q17 0 28 -11t11 -28t-11 -28t-28 -11t-28 11t-11 28t11 28t28 11z" />
    <glyph glyph-name="caron" horiz-adv-x="424" 
d="M12 175h400v307l-93 93h-307v-400zM371 373q0 55 -35 99l-34 -34q8 -11 15 -26.5t7 -38.5q0 -16 -5.5 -34t-16.5 -32l34 -33q19 21 27 47.5t8 51.5zM165 476q-35 -17 -50 -46.5t-15 -56.5q0 -32 12 -53t28 -34t31.5 -18t22.5 -5q19 0 31 12t12 24q0 20 -13 33
q-10 10 -31 24.5t-32 26.5q-10 11 -14.5 24t-4.5 25q0 29 23 44zM261 363q-13 14 -33 28t-28 23q-6 8 -9.5 14t-3.5 16q0 14 10.5 25.5t30.5 11.5q8 0 19.5 -4t29.5 -14l34 34q-23 19 -48.5 27t-50.5 8q-33 0 -62 -12.5t-50.5 -34t-34 -50.5t-12.5 -62t12.5 -62t34 -50.5
t50.5 -34t62 -12.5q26 0 50.5 8t47.5 26l-35 35q-5 -3 -8.5 -5.5t-11.5 -6.5q13 6 19 19t6 25q0 11 -4 23t-15 25zM17 570h300l90 -90v-300h-390v390zM365 373q0 -57 -30 -92l-26 27q11 14 15.5 31t4.5 34q0 22 -6 36.5t-14 28.5l27 26q17 -23 23 -47t6 -44zM156 380
q2 -2 7 -6.5t22 -17.5l22 -17t13 -11q5 -7 8.5 -13.5t3.5 -15.5q0 -11 -11.5 -20.5t-26.5 -9.5q-12 0 -29.5 7.5t-30.5 21.5q-14 14 -21 32t-7 43q0 21 8.5 43t25.5 37q-2 -5 -2.5 -10.5t-0.5 -10.5q0 -13 4 -25.5t15 -26.5zM257 360q10 -14 14 -24t4 -21q0 -14 -6.5 -24
t-15 -17t-16.5 -10.5t-12 -4.5q20 3 33 9t17 8l27 -27q-23 -17 -46.5 -23t-43.5 -6q-32 0 -60 12t-49 32.5t-33 48.5t-12 60t12 60t33 49t49 33t60 12q23 0 46 -6.5t46 -23.5l-28 -28q-11 8 -25 12.5t-22 4.5q-19 0 -33.5 -11t-14.5 -31q0 -8 3 -16t12 -17q7 -7 15 -13.5
t13 -9.5q18 -13 24.5 -19.5z" />
    <glyph glyph-name="dotlessi" unicode="&#xd;" horiz-adv-x="233" 
d="M194 483q0 16 -6 30t-16.5 24.5t-25 16.5t-30.5 6q-32 0 -54.5 -22.5t-22.5 -54.5v-405q0 -16 6 -30.5t16.5 -25t24.5 -16.5t30 -6q32 0 55 23t23 55v405z" />
    <glyph glyph-name="fraction" horiz-adv-x="1122" 
d="M119 254q0 -28 19 -47t46 -19q28 0 47 19t19 47v431q0 26 -19.5 45.5t-46.5 19.5h-103q-26 0 -43.5 -17.5t-17.5 -43.5q0 -25 17.5 -43t43.5 -18h38v-374zM304 23l500 642q13 18 13 37q0 16 -6 28t-15.5 19t-20 10.5t-19.5 3.5q-14 0 -26.5 -6t-21.5 -17l-500 -642
q-12 -17 -12 -37q0 -28 19 -44.5t41 -16.5q14 0 26.5 6t21.5 17zM963 192q0 -31 -21.5 -52t-51.5 -21t-52 21t-22 52q0 30 22 51.5t52 21.5t51.5 -21.5t21.5 -51.5zM935 405q0 -18 -13 -31t-32 -13t-32 13t-13 31q0 19 13 32.5t32 13.5t32 -13.5t13 -32.5zM1066 405
q0 35 -14.5 65t-38.5 52t-56 34.5t-67 12.5t-67 -12.5t-56 -34.5t-38.5 -52t-14.5 -65q0 -33 12.5 -53t20.5 -28q-24 -22 -43 -55.5t-19 -76.5q0 -42 16 -79.5t44 -65.5t65.5 -44t79.5 -16t79.5 16t65.5 44t44 65.5t16 79.5q0 43 -19 76.5t-43 55.5q8 8 20.5 28t12.5 53z
" />
    <glyph glyph-name="fi" horiz-adv-x="643" 
d="M449 410v-332q0 -16 6 -30.5t16.5 -25t24.5 -16.5t30 -6q32 0 55 23t23 55v393q0 16 -6 30t-16.5 24.5t-25 16.5t-30.5 6h-281v25q0 14 3.5 23.5t16.5 9.5q10 0 19.5 -4t18.5 -8.5l16.5 -8t15.5 -3.5q23 0 40 21t17 47t-13 45.5t-33.5 33t-45.5 20.5t-50 7q-41 0 -71 -14
t-50 -38.5t-29.5 -58t-9.5 -72.5v-25h-1q-29 0 -49 -20t-20 -49t20 -49t49 -20h1v-333q0 -32 22.5 -54.5t54.5 -22.5q16 0 30.5 6t25 16.5t16.5 24.5t6 30v333h204zM443 673q0 -35 24 -59.5t59 -24.5t59.5 24.5t24.5 59.5t-24.5 59t-59.5 24t-59 -24t-24 -59z" />
    <glyph glyph-name="fl" horiz-adv-x="412" 
d="M245 410h46q29 0 49 20t20 49t-20 49t-49 20h-46v25q0 14 3.5 23.5t16.5 9.5q10 0 19.5 -4t18.5 -8.5l16.5 -8t15.5 -3.5q23 0 40 21t17 47t-13 45.5t-33.5 33t-45.5 20.5t-50 7q-41 0 -71 -14t-50 -38.5t-29.5 -58t-9.5 -72.5v-25h-1q-29 0 -49 -20t-20 -49t20 -49
t49 -20h1v-333q0 -32 22.5 -54.5t54.5 -22.5q16 0 30.5 6t25 16.5t16.5 24.5t6 30v333zM611 673q0 16 -6 30t-16.5 24.5t-25 16.5t-30.5 6q-32 0 -54.5 -22.5t-22.5 -54.5v-595q0 -16 6 -30.5t16.5 -25t24.5 -16.5t30 -6q32 0 55 23t23 55v595z" />
    <glyph glyph-name="Lslash" horiz-adv-x="621" 
d="M129 220v-133q0 -36 25.5 -61.5t61.5 -25.5h312q33 0 57 23.5t24 57.5t-24 57.5t-57 23.5h-224v233l113 113q16 16 16 38q0 23 -16 40q-17 16 -40 16q-22 0 -38 -16l-35 -35v112q0 36 -25.5 61.5t-62.5 25.5q-36 0 -61.5 -25.5t-25.5 -61.5v-287l-93 -93q-16 -16 -16 -39
q0 -22 16 -39q17 -16 39 -16q23 0 39 16z" />
    <glyph glyph-name="lslash" horiz-adv-x="413" 
d="M129 220v-142q0 -16 6 -30.5t16.5 -25t24.5 -16.5t30 -6q32 0 55 23t23 55v297l93 93q16 16 16 38q0 23 -16 40q-17 16 -40 16q-22 0 -38 -16l-15 -15v142q0 16 -6 30t-16.5 24.5t-25 16.5t-30.5 6q-32 0 -54.5 -22.5t-22.5 -54.5v-297l-93 -93q-16 -16 -16 -39
q0 -22 16 -39q17 -16 39 -16q23 0 39 16z" />
    <glyph glyph-name="Zcaron" horiz-adv-x="688" 
d="M633 621q8 11 12 22t4 26q0 34 -24 57.5t-58 23.5h-433q-34 0 -58 -23.5t-24 -57.5t24 -57.5t58 -23.5h263l-334 -457q-8 -11 -12.5 -22.5t-4.5 -27.5q0 -34 24 -57.5t57 -23.5h453q34 0 57.5 23.5t23.5 57.5t-23.5 57.5t-57.5 23.5h-286zM194 950q0 -31 10.5 -55t28 -41
t41.5 -26t51 -9t51 10.5t42 28t28.5 41.5t10.5 51q0 16 -11 27t-27 11t-26.5 -11t-10.5 -27q0 -23 -17 -39.5t-40 -16.5t-39.5 16.5t-16.5 39.5q0 16 -11 27t-27 11t-26.5 -11t-10.5 -27z" />
    <glyph glyph-name="zcaron" horiz-adv-x="515" 
d="M39 137q-11 -13 -15 -24.5t-4 -28.5q0 -35 24.5 -59.5t59.5 -24.5h322q29 0 49 20t20 49q0 28 -20 48t-49 20h-187l234 286q11 13 15.5 24.5t4.5 28.5q0 35 -24.5 59.5t-59.5 24.5h-300q-29 0 -49 -20t-20 -49q0 -28 20 -48t49 -20h165zM157 725q0 -50 30.5 -77.5
t74.5 -27.5q22 0 41 8t33.5 22.5t23 33.5t8.5 41q0 13 -9 21.5t-22 8.5t-21 -8.5t-8 -21.5q0 -19 -13.5 -32t-32.5 -13t-32 13t-13 32q0 13 -8.5 21.5t-21.5 8.5t-21.5 -8.5t-8.5 -21.5z" />
    <glyph glyph-name="space" unicode=" " horiz-adv-x="250" 
 />
    <glyph glyph-name="exclam" unicode="!" horiz-adv-x="287" 
d="M46 98q0 -41 28 -69.5t69 -28.5t69.5 28.5t28.5 69.5q0 20 -7.5 37.5t-21 31t-31.5 21t-38 7.5t-38 -7.5t-31 -21t-20.5 -31t-7.5 -37.5zM62 669v-350q0 -34 23.5 -57.5t57.5 -23.5t57.5 23.5t23.5 57.5v350q0 34 -23.5 57.5t-57.5 23.5t-57.5 -23.5t-23.5 -57.5z" />
    <glyph glyph-name="quotedbl" unicode="&#x22;" horiz-adv-x="321" 
d="M122 585l25 115q1 3 1 7q0 26 -20.5 41t-43.5 15t-43.5 -15t-20.5 -41q0 -4 1 -7l25 -115q3 -15 12.5 -26.5t25.5 -11.5t25.5 11.5t12.5 26.5zM275 585l25 115q1 3 1 7q0 26 -20.5 41t-43.5 15t-43.5 -15t-20.5 -41q0 -4 1 -7l25 -115q3 -15 12.5 -26.5t25.5 -11.5
t25.5 11.5t12.5 26.5z" />
    <glyph glyph-name="numbersign" unicode="#" horiz-adv-x="615" 
d="M270 506h75v-75h-75v75zM270 319h75v-75q0 -23 16.5 -39.5t39.5 -16.5t39.5 16.5t16.5 39.5v75h75q23 0 40 16.5t17 39.5t-17 39.5t-40 16.5h-75v75h75q23 0 40 17t17 40t-17 39.5t-40 16.5h-75v75q0 23 -16.5 39.5t-39.5 16.5t-39.5 -16.5t-16.5 -39.5v-75h-75v75
q0 23 -16.5 39.5t-39.5 16.5t-40 -16.5t-17 -39.5v-75h-75q-23 0 -39.5 -16.5t-16.5 -39.5t16.5 -40t39.5 -17h75v-75h-75q-23 0 -39.5 -16.5t-16.5 -39.5t16.5 -39.5t39.5 -16.5h75v-75q0 -23 17 -39.5t40 -16.5t39.5 16.5t16.5 39.5v75z" />
    <glyph glyph-name="dollar" unicode="$" horiz-adv-x="616" 
d="M397 -2q24 6 57 19.5t63 40.5t51 71t21 110q0 47 -15.5 82t-42 61t-62.5 44t-77 30l-89 27q-23 7 -37.5 15t-22.5 16t-11 17.5t-3 19.5q0 31 25 51.5t57 20.5t53.5 -13t40 -28.5t38 -28.5t47.5 -13q26 0 47.5 17.5t21.5 60.5q0 27 -14.5 48.5t-36.5 38t-48.5 28
t-49.5 18.5v5q0 37 -25.5 62.5t-61.5 25.5t-62 -25.5t-26 -62.5v-1q-24 -6 -55.5 -18.5t-59 -37t-47 -63.5t-19.5 -97q0 -41 15.5 -73t41.5 -56t60.5 -41t72.5 -29l85 -26q33 -11 59 -30.5t26 -50.5q0 -10 -5 -24t-16 -27t-29 -22.5t-44 -9.5q-39 0 -67 16t-50.5 35.5
t-43 35.5t-46.5 16q-35 0 -59.5 -24.5t-24.5 -59.5t20.5 -63.5t50 -50.5t63 -36.5t59.5 -20.5v-29q0 -37 25.5 -62.5t61.5 -25.5t62 25.5t26 62.5v29z" />
    <glyph glyph-name="percent" unicode="%" horiz-adv-x="949" 
d="M214 375q40 0 75 15.5t61 41.5t41.5 61.5t15.5 75.5t-15.5 75.5t-41.5 61.5t-61 41.5t-75 15.5t-75.5 -15.5t-61.5 -41.5t-41.5 -61.5t-15.5 -75.5t15.5 -75.5t41.5 -61.5t61.5 -41.5t75.5 -15.5zM130 569q0 35 24.5 59.5t59.5 24.5t59 -24.5t24 -59.5t-24 -59.5
t-59 -24.5t-59.5 24.5t-24.5 59.5zM735 -13q40 0 75.5 15.5t61.5 42t41.5 61.5t15.5 75t-15.5 75.5t-41.5 61.5t-61.5 41.5t-75.5 15.5t-75.5 -15.5t-61.5 -41.5t-41.5 -61.5t-15.5 -75.5t15.5 -75t41.5 -61.5t61.5 -42t75.5 -15.5zM651 181q0 35 24.5 59.5t59.5 24.5
t59.5 -24.5t24.5 -59.5t-24.5 -59t-59.5 -24t-59.5 24t-24.5 59zM311 31l495 637q18 22 18 50q0 22 -8.5 37t-20.5 25t-26.5 14.5t-26.5 4.5q-18 0 -35 -8t-29 -23l-495 -637q-17 -23 -17 -50q0 -18 7 -33.5t18.5 -26t26 -16.5t29.5 -6q18 0 35 8t29 24z" />
    <glyph glyph-name="ampersand" unicode="&#x26;" horiz-adv-x="669" 
d="M449 300l-183 183q-5 5 -15.5 19t-10.5 36q0 23 16 40t39 17t37.5 -14.5t19.5 -37.5q5 -25 30 -41.5t55 -16.5q18 0 34 8t27.5 21t18 29.5t6.5 34.5q0 43 -20 77.5t-52 58.5t-73 36.5t-84 12.5q-45 0 -87 -16t-73.5 -44t-50.5 -66t-19 -83q0 -26 5.5 -45.5t14 -34t18 -25
t18.5 -17.5q-32 -17 -51.5 -38.5t-30.5 -45t-14.5 -46.5t-3.5 -42q0 -57 22 -107t60.5 -87t89 -58t107.5 -21q45 0 94 17t92 57l41 -41q21 -21 50 -21q15 0 28.5 6.5t23.5 16.5t15.5 23t5.5 27q0 28 -21 49l-56 56q17 32 25 60t8 46t-5.5 35.5t-15.5 31.5t-25 22.5t-33 8.5
q-36 0 -51 -22.5t-26 -58.5zM373 173q-31 -35 -74 -35q-25 0 -46 10t-36.5 26t-24.5 36.5t-9 42.5q0 44 33 77z" />
    <glyph glyph-name="quotesingle" unicode="'" horiz-adv-x="168" 
d="M122 585l25 115q1 3 1 7q0 26 -20.5 41t-43.5 15t-43.5 -15t-20.5 -41q0 -4 1 -7l25 -115q3 -15 12.5 -26.5t25.5 -11.5t25.5 11.5t12.5 26.5z" />
    <glyph glyph-name="parenleft" unicode="(" horiz-adv-x="415" 
d="M353 78q-26 15 -55.5 42t-55.5 64.5t-43 85.5t-17 105t17 105t43 85.5t55.5 64.5t55.5 42q26 16 38 35.5t12 39.5q0 30 -21.5 52.5t-55.5 22.5q-18 0 -48 -14t-64 -40.5t-68.5 -65.5t-62.5 -88.5t-45.5 -109.5t-17.5 -129t17.5 -129t45.5 -109.5t62.5 -88.5t68.5 -65.5
t64 -40.5t48 -14q33 0 55 23t22 52q0 20 -12 39.5t-38 35.5z" />
    <glyph glyph-name="parenright" unicode=")" horiz-adv-x="415" 
d="M62 78q-26 -16 -38 -35.5t-12 -39.5q0 -29 22 -52t55 -23q18 0 48 14t64 40.5t68.5 65.5t62.5 88.5t45.5 109.5t17.5 129t-17.5 129t-45.5 109.5t-62.5 88.5t-68.5 65.5t-64 40.5t-48 14q-34 0 -55.5 -22.5t-21.5 -52.5q0 -20 12 -39.5t38 -35.5q25 -15 55 -42t56 -64.5
t43 -85.5t17 -105t-17 -105t-43 -85.5t-56 -64.5t-55 -42z" />
    <glyph glyph-name="asterisk" unicode="*" horiz-adv-x="452" 
d="M282 706q0 23 -16.5 40t-39.5 17t-39.5 -17t-16.5 -40v-75l-65 38q-13 7 -28 7q-8 0 -18 -3t-18.5 -10t-14.5 -17t-6 -25q0 -31 29 -49l65 -38l-65 -37q-14 -8 -21.5 -21.5t-7.5 -28.5t5.5 -25t14 -17t18.5 -10t19 -3q15 0 28 7l65 38v-75q0 -23 16.5 -39.5t39.5 -16.5
t39.5 16.5t16.5 39.5v75l65 -38q11 -7 28 -7q9 0 19 3t18.5 10t14 17t5.5 25q0 14 -7 28t-21 22l-65 37l65 38q14 8 21 21.5t7 27.5q0 29 -18.5 42t-37.5 13q-15 0 -28 -7l-66 -38v75z" />
    <glyph glyph-name="plus" unicode="+" horiz-adv-x="374" 
d="M242 320h65q23 0 39 16t16 39t-16 39t-39 16h-65v65q0 23 -16 39t-39 16t-39 -16t-16 -39v-65h-65q-23 0 -39 -16t-16 -39t16 -39t39 -16h65v-65q0 -23 16 -39t39 -16t39 16t16 39v65z" />
    <glyph glyph-name="comma" unicode="," 
d="M215 98q0 20 -7.5 37.5t-21 31t-31.5 21t-38 7.5t-38 -7.5t-31 -21t-20.5 -31t-7.5 -37.5q0 -30 15.5 -53t38.5 -34l-9 -21q-5 -12 -5 -20q0 -21 15 -36t36 -15q16 0 29 8.5t19 22.5l48 110q8 17 8 38z" />
    <glyph glyph-name="hyphen" unicode="-" horiz-adv-x="390" 
d="M315 320q23 0 39 16t16 39t-16 39t-39 16h-240q-23 0 -39 -16t-16 -39t16 -39t39 -16h240z" />
    <glyph glyph-name="period" unicode="." 
d="M20 98q0 -41 28 -69.5t69 -28.5t69.5 28.5t28.5 69.5q0 20 -7.5 37.5t-21 31t-31.5 21t-38 7.5t-38 -7.5t-31 -21t-20.5 -31t-7.5 -37.5z" />
    <glyph glyph-name="slash" unicode="/" horiz-adv-x="682" 
d="M157 31l495 637q18 22 18 50q0 22 -8.5 37t-20.5 25t-26.5 14.5t-26.5 4.5q-18 0 -35 -8t-29 -23l-495 -637q-17 -23 -17 -50q0 -18 7 -33.5t18.5 -26t26 -16.5t29.5 -6q18 0 35 8t29 24z" />
    <glyph glyph-name="zero" unicode="0" horiz-adv-x="815" 
d="M407 -13q80 0 151 30.5t123.5 83t83 123.5t30.5 151t-30.5 151t-83 123.5t-123.5 83t-151 30.5t-150.5 -30.5t-123 -83t-83 -123.5t-30.5 -151t30.5 -151t83 -123.5t123 -83t150.5 -30.5zM195 375q0 44 16.5 82.5t45.5 67.5t67.5 46t82.5 17t83 -17t68 -46t45.5 -67.5
t16.5 -82.5t-16.5 -82.5t-45.5 -67.5t-68 -45.5t-83 -16.5t-82.5 16.5t-67.5 45.5t-45.5 67.5t-16.5 82.5z" />
    <glyph glyph-name="one" unicode="1" horiz-adv-x="365" 
d="M144 88q0 -37 25.5 -62.5t61.5 -25.5q37 0 62.5 25.5t25.5 62.5v575q0 18 -7 33.5t-19 27.5t-28 19t-34 7h-137q-34 0 -57.5 -23.5t-23.5 -57.5t23.5 -57.5t57.5 -23.5h50v-500z" />
    <glyph glyph-name="two" unicode="2" horiz-adv-x="586" 
d="M59 139q-11 -10 -17.5 -25t-6.5 -33q0 -34 23.5 -57.5t57.5 -23.5h366q34 0 58 23.5t24 57.5t-24 57.5t-58 23.5h-165l140 131q51 47 80 99t29 109q0 55 -21.5 103t-58 83t-85.5 55.5t-104 20.5q-57 0 -107.5 -22t-88 -60t-59.5 -88.5t-22 -107.5q0 -36 25.5 -61.5
t61.5 -25.5t62 25.5t26 61.5q0 26 8.5 47.5t22 36.5t31.5 23t38 8q40 0 68.5 -27t28.5 -67q0 -28 -11 -47t-31 -39z" />
    <glyph glyph-name="three" unicode="3" horiz-adv-x="593" 
d="M241 543q5 23 19.5 37.5t37.5 14.5t39 -17t16 -40q0 -19 -6.5 -29.5t-16.5 -17t-21.5 -11t-21.5 -12t-16.5 -19.5t-6.5 -33t10 -32t25 -18.5t32 -14t32 -17.5t25 -30.5t10 -52.5q0 -20 -8 -38.5t-21.5 -32t-31.5 -21.5t-39 -8t-39 8t-31.5 21.5t-21.5 32t-8 38.5
q0 18 -7.5 34.5t-20 29t-29.5 19.5t-35 7q-36 0 -61 -26.5t-25 -63.5v-10q0 -42 20.5 -87t56.5 -82t86.5 -61t110.5 -24q57 0 107.5 21t89 58t60.5 87t22 107q0 45 -13.5 77t-31 52t-34.5 30.5t-25 13.5q16 9 27.5 22.5t18.5 30t10.5 34.5t3.5 34q0 45 -19 83t-50.5 66
t-73.5 44t-87 16q-43 0 -84 -12.5t-73.5 -36.5t-52 -58.5t-19.5 -77.5q0 -18 6.5 -34.5t18 -29.5t27.5 -21t34 -8q30 0 54.5 16.5t30.5 41.5z" />
    <glyph glyph-name="four" unicode="4" horiz-adv-x="658" 
d="M170 313l205 275v-275h-205zM13 313v-63q0 -36 25.5 -61.5t61.5 -25.5h275v-75q0 -37 25.5 -62.5t62.5 -25.5q36 0 61.5 25.5t25.5 62.5v75h20q31 0 53 21.5t22 53.5q0 31 -22 53t-53 22h-20v350q0 36 -25.5 61.5t-61.5 25.5h-113q-28 0 -46.5 -10.5t-25.5 -20.5
l-233 -315q-20 -26 -26 -46t-6 -45z" />
    <glyph glyph-name="five" unicode="5" horiz-adv-x="583" 
d="M180 750q-29 0 -47.5 -8t-30.5 -21t-18 -29t-8 -31l-27 -188q-2 -15 2 -29.5t14 -26t25 -19t36 -7.5h138q25 0 48 -10t39.5 -26.5t26.5 -39t10 -47.5q0 -23 -10 -42.5t-26.5 -33.5t-38 -21.5t-44.5 -7.5q-27 0 -44 8t-28 20t-19 25.5t-17.5 25.5t-22.5 20t-35 8
q-34 0 -58.5 -24t-24.5 -58q0 -32 17.5 -67.5t49.5 -65t78.5 -49t103.5 -19.5q59 0 112.5 21.5t94 59.5t64 89t23.5 111q0 68 -23.5 120t-64 87.5t-94 54t-112.5 18.5h-34v47h223q16 0 30 6t24.5 16.5t16.5 25t6 30.5q0 32 -22.5 54.5t-54.5 22.5h-278z" />
    <glyph glyph-name="six" unicode="6" horiz-adv-x="650" 
d="M436 623q19 23 19 54q0 13 -5 28.5t-15.5 28.5t-27 21.5t-39.5 8.5q-20 0 -38 -8.5t-32 -25.5l-218 -279q-32 -41 -46 -79.5t-14 -91.5q0 -62 24.5 -115t66 -93t97 -62.5t117.5 -22.5q61 0 116.5 22.5t97.5 61.5t66.5 92.5t24.5 116.5q0 54 -19 101t-52 84t-77 62t-93 35
zM195 280q0 27 10 50.5t28 41.5t41.5 28t50.5 10t50.5 -10t41.5 -28t28 -41.5t10 -50.5t-10 -50.5t-28 -41.5t-41.5 -28t-50.5 -10t-50.5 10t-41.5 28t-28 41.5t-10 50.5z" />
    <glyph glyph-name="seven" unicode="7" horiz-adv-x="562" 
d="M550 669q0 34 -23.5 57.5t-57.5 23.5h-375q-34 0 -57.5 -23.5t-23.5 -57.5t23.5 -57.5t57.5 -23.5h236l-202 -467q-7 -15 -7 -35q0 -24 9 -40.5t22.5 -26.5t28.5 -14.5t27 -4.5q25 0 47 13t33 38l256 588q4 8 5 15t1 15z" />
    <glyph glyph-name="eight" unicode="8" horiz-adv-x="586" 
d="M390 260q0 -20 -7.5 -38t-21 -31t-31 -20.5t-37.5 -7.5q-41 0 -69.5 28t-28.5 69t28.5 69.5t69.5 28.5q20 0 37.5 -7.5t31 -21t21 -31.5t7.5 -38zM353 545q0 -25 -17.5 -42.5t-42.5 -17.5t-42.5 17.5t-17.5 42.5t17.5 42.5t42.5 17.5t42.5 -17.5t17.5 -42.5zM528 545
q0 46 -19 86t-51.5 69.5t-75 46t-89.5 16.5t-89.5 -16.5t-75 -46t-51.5 -69.5t-19 -86q0 -22 5 -40t12 -31.5t14.5 -22.5l12.5 -15q-32 -29 -57 -74t-25 -102t21.5 -106.5t58.5 -86.5t86.5 -58.5t106.5 -21.5t106.5 21.5t86.5 58.5t58.5 86.5t21.5 106.5t-25 102t-57 74
l12.5 15t14.5 22.5t12 31.5t5 40z" />
    <glyph glyph-name="nine" unicode="9" horiz-adv-x="650" 
d="M214 127q-19 -23 -19 -54q0 -14 5 -29t15.5 -28t27 -21.5t39.5 -8.5q20 0 38 8.5t32 25.5l218 279q32 41 46 79.5t14 91.5q0 61 -24.5 114.5t-66 93.5t-97 62.5t-117.5 22.5t-117 -22.5t-97 -61.5t-66.5 -92.5t-24.5 -116.5q0 -54 19 -101t52 -84t77 -62t93 -35zM455 470
q0 -27 -10 -50.5t-28 -41.5t-41.5 -28t-50.5 -10t-50.5 10t-41.5 28t-28 41.5t-10 50.5t10 50.5t28 41.5t41.5 28t50.5 10t50.5 -10t41.5 -28t28 -41.5t10 -50.5z" />
    <glyph glyph-name="colon" unicode=":" horiz-adv-x="275" 
d="M40 98q0 -41 28 -69.5t69 -28.5t69.5 28.5t28.5 69.5q0 20 -7.5 37.5t-21 31t-31.5 21t-38 7.5t-38 -7.5t-31 -21t-20.5 -31t-7.5 -37.5zM40 411q0 -41 28 -69.5t69 -28.5t69.5 28.5t28.5 69.5q0 20 -7.5 37.5t-21 31t-31.5 21t-38 7.5t-38 -7.5t-31 -21t-20.5 -31
t-7.5 -37.5z" />
    <glyph glyph-name="semicolon" unicode=";" horiz-adv-x="275" 
d="M40 411q0 -41 28 -69.5t69 -28.5t69.5 28.5t28.5 69.5q0 20 -7.5 37.5t-21 31t-31.5 21t-38 7.5t-38 -7.5t-31 -21t-20.5 -31t-7.5 -37.5zM235 98q0 20 -7.5 37.5t-21 31t-31.5 21t-38 7.5t-38 -7.5t-31 -21t-20.5 -31t-7.5 -37.5q0 -30 15.5 -53t38.5 -34l-9 -21
q-5 -12 -5 -20q0 -21 15 -36t36 -15q16 0 29 8.5t19 22.5l48 110q8 17 8 38z" />
    <glyph glyph-name="less" unicode="&#x3c;" horiz-adv-x="275" 
d="M12 375q0 -23 15 -39l134 -134q16 -16 39 -16q22 0 38.5 15t16.5 39q0 21 -16 39l-95 96l95 95q16 16 16 39q0 25 -17 40t-38 15q-23 0 -39 -16l-134 -134q-15 -15 -15 -39z" />
    <glyph glyph-name="equal" unicode="=" horiz-adv-x="374" 
d="M307 403q23 0 39 16t16 39t-16 39t-39 16h-240q-23 0 -39 -16t-16 -39t16 -39t39 -16h240zM307 238q23 0 39 16t16 39t-16 39t-39 16h-240q-23 0 -39 -16t-16 -39t16 -39t39 -16h240z" />
    <glyph glyph-name="greater" unicode="&#x3e;" horiz-adv-x="275" 
d="M263 375q0 24 -15 39l-134 134q-16 16 -39 16q-21 0 -38 -15t-17 -40q0 -23 16 -39l95 -95l-95 -96q-16 -18 -16 -39q0 -24 16.5 -39t38.5 -15q23 0 39 16l134 134q15 16 15 39z" />
    <glyph glyph-name="question" unicode="?" horiz-adv-x="567" 
d="M184 98q0 -41 28.5 -69.5t69.5 -28.5t69 28.5t28 69.5q0 20 -7.5 37.5t-20.5 31t-31 21t-38 7.5t-38 -7.5t-31.5 -21t-21 -31t-7.5 -37.5zM282 613q24 0 44.5 -9t36.5 -25t25 -36.5t9 -44.5t-9 -45t-25 -36.5t-36.5 -24.5t-44.5 -9q-31 0 -53 -22t-22 -53q0 -32 22 -53.5
t53 -21.5q54 0 102.5 20.5t84.5 56.5t57 84.5t21 103.5t-21 103t-57 84t-84 57t-103 21q-66 0 -115 -26t-82 -63t-49 -76.5t-16 -67.5q0 -35 22.5 -55.5t51.5 -20.5q28 0 49 17t26 44q7 44 38 71t75 27z" />
    <glyph glyph-name="at" unicode="@" horiz-adv-x="640" 
d="M317 439q26 0 45 -18.5t19 -45.5q0 -26 -19 -45t-45 -19q-27 0 -46 19t-19 45q0 27 19 45.5t46 18.5zM383 259q0 -23 9 -41t23.5 -30t32 -18.5t34.5 -6.5q39 0 65.5 23t42.5 56t23 69.5t7 63.5q0 62 -23.5 117t-64.5 95.5t-95.5 64t-116.5 23.5t-117 -23.5t-95.5 -64
t-64 -95.5t-23.5 -117t23.5 -116.5t64.5 -95.5t95.5 -64.5t116.5 -23.5q16 0 27.5 11.5t11.5 27.5t-11.5 27.5t-27.5 11.5q-46 0 -86.5 17.5t-71 47.5t-48 70.5t-17.5 86.5t17.5 86.5t48 71t71 48t86.5 17.5t86.5 -17.5t70.5 -47.5t47.5 -71t17.5 -87q0 -27 -6 -51.5
t-14.5 -43t-18.5 -30t-19 -11.5q-16 0 -20.5 10t-4.5 15v212q0 17 -11.5 28t-27.5 11q-14 0 -24.5 -9t-12.5 -19q-1 1 -6.5 5.5t-15.5 9.5t-24 9t-33 4q-23 0 -46 -10.5t-41.5 -29t-30 -44.5t-11.5 -56t11.5 -56t30 -44.5t41.5 -29t46 -10.5q19 0 33 4t24 9.5t15.5 10
t6.5 5.5v-5z" />
    <glyph glyph-name="A" unicode="A" horiz-adv-x="732" 
d="M369 505l90 -219h-182zM555 51q10 -24 32 -37.5t47 -13.5q36 0 61 25t25 62q0 18 -7 35l-261 587q-23 54 -83 54q-58 0 -83 -54l-266 -587q-8 -18 -8 -35q0 -24 9 -40.5t22 -27t28 -15t27 -4.5q25 0 47 13.5t32 37.5l36 85h307z" />
    <glyph glyph-name="B" unicode="B" horiz-adv-x="648" 
d="M352 588q26 0 45 -19t19 -45t-19 -45t-45 -19h-131v128h131zM370 310q30 0 51.5 -21.5t21.5 -52.5q0 -30 -21.5 -51.5t-51.5 -21.5h-149v147h149zM386 0q46 0 89 16t75 44t51.5 67t19.5 86q0 46 -13 80.5t-31 58t-36.5 37t-30.5 18.5q10 3 23 12t25 25.5t20 41.5t8 60
q0 48 -17.5 86t-47 64t-68.5 40t-82 14h-238q-36 0 -61.5 -25.5t-25.5 -61.5v-576q0 -36 25.5 -61.5t61.5 -25.5h253z" />
    <glyph glyph-name="C" unicode="C" horiz-adv-x="754" 
d="M407 -13q97 0 173 34.5t127 96.5q20 25 20 54q0 18 -9.5 35t-24 30.5t-32.5 21.5t-34 8t-31.5 -8t-31.5 -27q-23 -26 -64.5 -47.5t-92.5 -21.5q-44 0 -82.5 16.5t-67.5 45.5t-45.5 67.5t-16.5 82.5t16.5 82.5t45.5 67.5t67.5 46t82.5 17q25 0 48.5 -6t43.5 -16
t36.5 -22.5t28.5 -25.5q30 -34 62 -34q11 0 28 6t33.5 17.5t28 29.5t11.5 42q0 28 -20 53q-51 62 -127 96.5t-173 34.5q-80 0 -150 -30.5t-123 -83t-83.5 -123.5t-30.5 -151t30.5 -151t83.5 -123.5t123 -83t150 -30.5z" />
    <glyph glyph-name="D" unicode="D" horiz-adv-x="741" 
d="M133 0h235q75 0 140 30.5t112 82t74 119.5t27 143t-27 143t-74 119.5t-112 82t-140 30.5h-235q-36 0 -61.5 -25.5t-25.5 -61.5v-576q0 -36 25.5 -61.5t61.5 -25.5zM346 588q43 0 79.5 -17.5t63.5 -47t42 -68t15 -81.5t-15.5 -81t-42.5 -67t-63.5 -46t-78.5 -17h-125v425
h125z" />
    <glyph glyph-name="E" unicode="E" horiz-adv-x="572" 
d="M471 0q34 0 57.5 23.5t23.5 57.5t-23.5 57.5t-57.5 23.5h-250v148h192q32 0 53.5 22t21.5 53t-21.5 53t-53.5 22h-192v128h250q34 0 57.5 23.5t23.5 57.5t-23.5 57.5t-57.5 23.5h-338q-36 0 -61.5 -25.5t-25.5 -61.5v-576q0 -36 25.5 -61.5t61.5 -25.5h338z" />
    <glyph glyph-name="F" unicode="F" horiz-adv-x="572" 
d="M221 88v222h192q32 0 53.5 22t21.5 53t-21.5 53t-53.5 22h-192v128h250q34 0 57.5 23.5t23.5 57.5t-23.5 57.5t-57.5 23.5h-338q-36 0 -61.5 -25.5t-25.5 -61.5v-575q0 -37 25.5 -62.5t61.5 -25.5q37 0 62.5 25.5t25.5 62.5z" />
    <glyph glyph-name="G" unicode="G" horiz-adv-x="745" 
d="M725 194v152q0 18 -7 34t-19 28t-28 19t-34 7h-221q-32 0 -54.5 -23t-22.5 -55t22.5 -54.5t54.5 -22.5h134v-38q0 -17 -13.5 -31t-34 -24.5t-46 -16.5t-49.5 -6q-44 0 -82.5 16.5t-67 45.5t-45.5 67.5t-17 82.5t16.5 82.5t45.5 67.5t67.5 46t82.5 17q40 0 74 -13.5
t55 -30.5q24 -20 52 -20q16 0 31.5 7.5t28.5 20t21 30t8 37.5q0 17 -6.5 32t-20.5 26q-44 35 -105.5 60.5t-137.5 25.5q-80 0 -150 -30.5t-123 -83t-83.5 -123.5t-30.5 -151t30.5 -151t83.5 -123.5t123 -83t150 -30.5q47 0 89.5 10.5t79.5 28.5t67.5 42t54.5 51
q17 19 22 35.5t5 39.5z" />
    <glyph glyph-name="H" unicode="H" horiz-adv-x="717" 
d="M496 300v-212q0 -37 25.5 -62.5t61.5 -25.5q37 0 62.5 25.5t25.5 62.5v575q0 36 -25.5 61.5t-62.5 25.5q-36 0 -61.5 -25.5t-25.5 -61.5v-200h-275v200q0 36 -25.5 61.5t-62.5 25.5q-36 0 -61.5 -25.5t-25.5 -61.5v-575q0 -37 25.5 -62.5t61.5 -25.5q37 0 62.5 25.5
t25.5 62.5v212h275z" />
    <glyph glyph-name="I" unicode="I" horiz-adv-x="267" 
d="M46 663v-575q0 -37 25.5 -62.5t61.5 -25.5q37 0 62.5 25.5t25.5 62.5v575q0 36 -25.5 61.5t-62.5 25.5q-36 0 -61.5 -25.5t-25.5 -61.5z" />
    <glyph glyph-name="J" unicode="J" horiz-adv-x="633" 
d="M12 275q0 -59 22.5 -111.5t61.5 -91.5t91.5 -62t111.5 -23q60 0 112.5 23t91.5 62t61.5 91.5t22.5 111.5v388q0 36 -26 61.5t-62 25.5t-61.5 -25.5t-25.5 -61.5v-388q0 -23 -9 -43.5t-24.5 -35.5t-36 -24t-43.5 -9t-43.5 9t-35.5 24t-24 35.5t-9 43.5q0 36 -26 61.5
t-62 25.5t-61.5 -25.5t-25.5 -61.5z" />
    <glyph glyph-name="K" unicode="K" horiz-adv-x="675" 
d="M388 386l227 214q13 12 19.5 28t6.5 33q0 21 -8 38t-21 28t-28.5 17t-30.5 6q-36 0 -62 -26l-270 -270v209q0 36 -25.5 61.5t-62.5 25.5q-36 0 -61.5 -25.5t-25.5 -61.5v-575q0 -37 25.5 -62.5t61.5 -25.5q37 0 62.5 25.5t25.5 62.5v230l292 -293q25 -25 62 -25
q24 0 40.5 9t27 22t15.5 28.5t5 28.5q0 17 -6.5 33t-19.5 28z" />
    <glyph glyph-name="L" unicode="L" horiz-adv-x="538" 
d="M221 663q0 36 -25.5 61.5t-62.5 25.5q-36 0 -61.5 -25.5t-25.5 -61.5v-576q0 -36 25.5 -61.5t61.5 -25.5h312q33 0 57 23.5t24 57.5t-24 57.5t-57 23.5h-224v501z" />
    <glyph glyph-name="M" unicode="M" horiz-adv-x="901" 
d="M735 684q-8 29 -29.5 47.5t-54.5 18.5q-26 0 -49 -16t-33 -42l-118 -324l-118 324q-10 26 -33 42t-49 16q-33 0 -54.5 -18.5t-29.5 -47.5l-144 -576q-3 -11 -3 -21q0 -18 7 -33.5t18.5 -27.5t27.5 -19t34 -7q29 0 53 18.5t32 47.5l75 297l111 -306q9 -26 27.5 -41.5
t45.5 -15.5t45.5 15.5t27.5 41.5l111 306l74 -297q8 -29 32.5 -47.5t53.5 -18.5q23 0 39 8.5t26.5 22t15.5 28.5t5 29v10t-2 10z" />
    <glyph glyph-name="N" unicode="N" horiz-adv-x="737" 
d="M534 35q11 -14 28.5 -24.5t40.5 -10.5q37 0 62.5 25.5t25.5 62.5v575q0 36 -25.5 61.5t-62.5 25.5q-36 0 -61.5 -25.5t-25.5 -61.5v-349l-315 404q-11 13 -28.5 22.5t-39.5 9.5q-36 0 -61.5 -25.5t-25.5 -61.5v-575q0 -37 25.5 -62.5t61.5 -25.5q37 0 62.5 25.5
t25.5 62.5v350z" />
    <glyph glyph-name="O" unicode="O" horiz-adv-x="815" 
d="M407 -13q80 0 151 30.5t123.5 83t83 123.5t30.5 151t-30.5 151t-83 123.5t-123.5 83t-151 30.5t-150.5 -30.5t-123 -83t-83 -123.5t-30.5 -151t30.5 -151t83 -123.5t123 -83t150.5 -30.5zM195 375q0 44 16.5 82.5t45.5 67.5t67.5 46t82.5 17t83 -17t68 -46t45.5 -67.5
t16.5 -82.5t-16.5 -82.5t-45.5 -67.5t-68 -45.5t-83 -16.5t-82.5 16.5t-67.5 45.5t-45.5 67.5t-16.5 82.5z" />
    <glyph glyph-name="P" unicode="P" horiz-adv-x="618" 
d="M317 588q22 0 41.5 -8.5t33.5 -23t22.5 -34t8.5 -41.5t-8.5 -41t-22.5 -33.5t-33.5 -23t-41.5 -8.5h-96v213h96zM46 88q0 -37 25.5 -62.5t61.5 -25.5q37 0 62.5 25.5t25.5 62.5v125h109q55 0 104 21t85.5 57.5t57.5 85t21 104.5t-21 105t-57.5 85.5t-85.5 57.5t-104 21
h-197q-36 0 -61.5 -25.5t-25.5 -61.5v-575z" />
    <glyph glyph-name="Q" unicode="Q" horiz-adv-x="855" 
d="M407 -13q70 0 126 21t101 54l58 -56q13 -12 28.5 -18t32.5 -6q24 0 39.5 8.5t25 21.5t13.5 27t4 26q0 35 -26 61l-63 61q21 38 35 84.5t14 103.5q0 80 -30.5 151t-83 123.5t-123.5 83t-151 30.5t-150.5 -30.5t-123 -83t-83 -123.5t-30.5 -151t30.5 -151t83 -123.5
t123 -83t150.5 -30.5zM195 375q0 44 16.5 82.5t45.5 67.5t67.5 46t82.5 17t83 -17t68 -46t45.5 -67.5t16.5 -82.5t-16.5 -82.5t-45.5 -67.5t-68 -45.5t-83 -16.5t-82.5 16.5t-67.5 45.5t-45.5 67.5t-16.5 82.5z" />
    <glyph glyph-name="R" unicode="R" horiz-adv-x="627" 
d="M325 588q22 0 41 -8.5t33.5 -23t23 -34t8.5 -41.5t-8.5 -41t-23 -33.5t-33.5 -23t-41 -8.5h-104v213h104zM428 263q82 29 125 84.5t43 133.5q0 55 -21 104t-58 86t-86 58t-104 21h-194q-36 0 -61.5 -25.5t-25.5 -61.5v-575q0 -37 25.5 -62.5t61.5 -25.5q37 0 62.5 25.5
t25.5 62.5v127h10l227 -195q12 -11 27 -15.5t30 -4.5q21 0 37 8t26.5 21t16 27.5t5.5 28.5q0 18 -7.5 35t-22.5 29z" />
    <glyph glyph-name="S" unicode="S" horiz-adv-x="616" 
d="M589 239q0 47 -15.5 82t-42 61t-62.5 44t-77 30l-89 27q-23 7 -37.5 15t-22.5 16t-11 17.5t-3 19.5q0 31 25 51.5t57 20.5q18 0 35 -6t32 -15t27 -19t20 -18q11 -11 28.5 -18t36.5 -7q26 0 47.5 17.5t21.5 60.5q0 27 -18 53t-50.5 46.5t-77.5 33t-99 12.5q-52 0 -99 -13
t-83 -40.5t-57 -70t-21 -100.5q0 -41 15.5 -73t41.5 -56t60.5 -41t72.5 -29l85 -26q33 -11 59 -30.5t26 -50.5q0 -10 -5 -24t-16 -27t-29 -22.5t-44 -9.5q-39 0 -67 16t-50.5 35.5t-43 35.5t-46.5 16q-35 0 -59.5 -24.5t-24.5 -59.5t24 -67.5t62.5 -58t87 -41t97.5 -15.5
q59 0 111.5 14.5t92 45.5t62.5 78.5t23 113.5z" />
    <glyph glyph-name="T" unicode="T" horiz-adv-x="661" 
d="M94 750q-34 0 -57.5 -23.5t-23.5 -57.5t23.5 -57.5t57.5 -23.5h149v-500q0 -37 25.5 -62.5t61.5 -25.5t62 25.5t26 62.5v500h148q34 0 58 23.5t24 57.5t-24 57.5t-58 23.5h-472z" />
    <glyph glyph-name="U" unicode="U" horiz-adv-x="704" 
d="M483 294q0 -27 -10.5 -51t-28 -41.5t-41.5 -28t-51 -10.5t-51 10.5t-41.5 28t-28 41.5t-10.5 51v369q0 36 -25.5 61.5t-62.5 25.5q-36 0 -61.5 -25.5t-25.5 -61.5v-369q0 -63 24 -119t65.5 -98t97.5 -66t119 -24t119 24t97.5 66t65.5 98t24 119v369q0 36 -25.5 61.5
t-61.5 25.5t-62 -25.5t-26 -61.5v-369z" />
    <glyph glyph-name="V" unicode="V" horiz-adv-x="704" 
d="M432 55l253 572q7 17 7 35q0 22 -7.5 38.5t-20 27.5t-28 16.5t-31.5 5.5q-26 0 -48 -13.5t-32 -38.5l-173 -433l-174 433q-10 25 -31.5 38.5t-47.5 13.5q-23 0 -39 -8.5t-27 -21t-16 -28t-5 -30.5q0 -18 7 -35l253 -572q11 -26 31 -40.5t49 -14.5t49 14.5t31 40.5z" />
    <glyph glyph-name="W" unicode="W" horiz-adv-x="998" 
d="M583 690q-10 29 -32 44.5t-52 15.5t-51.5 -15.5t-32.5 -44.5l-130 -367l-103 366q-8 28 -31 44.5t-52 16.5q-22 0 -38.5 -8.5t-27 -21.5t-16 -28.5t-5.5 -29.5q0 -15 4 -27l181 -575q9 -28 30 -44t50 -16t50 15.5t31 43.5l141 397l141 -397q10 -28 31 -43.5t50 -15.5
t50 16t30 44l181 575q4 12 4 27q0 14 -5.5 29.5t-16 28.5t-27 21.5t-38.5 8.5q-29 0 -52 -16.5t-31 -44.5l-103 -366z" />
    <glyph glyph-name="X" unicode="X" horiz-adv-x="667" 
d="M224 386l-187 -246q-17 -23 -17 -52q0 -15 5.5 -30.5t16 -28t27 -21t38.5 -8.5q20 0 38.5 8.5t31.5 25.5l157 207l156 -207q13 -17 31.5 -25.5t38.5 -8.5q15 0 30.5 5.5t28 16.5t20.5 27.5t8 38.5q0 14 -4 27.5t-13 24.5l-187 246l170 224q9 11 13 24.5t4 27.5
q0 25 -9 42t-22.5 27t-28.5 14.5t-27 4.5q-20 0 -38.5 -9t-31.5 -26l-139 -184l-140 184q-13 17 -31 26t-38 9q-14 0 -29 -5t-28.5 -16t-22 -27.5t-8.5 -39.5q0 -29 17 -52z" />
    <glyph glyph-name="Y" unicode="Y" horiz-adv-x="648" 
d="M621 613q15 22 15 49q0 21 -8 37.5t-20.5 28t-28 17t-30.5 5.5q-21 0 -40 -9.5t-32 -28.5l-153 -220l-153 220q-13 19 -32 28.5t-40 9.5q-15 0 -30.5 -5.5t-28 -17t-20.5 -28t-8 -37.5q0 -27 15 -49l210 -303v-222q0 -37 25.5 -62.5t61.5 -25.5t62 25.5t26 62.5v222z" />
    <glyph glyph-name="Z" unicode="Z" horiz-adv-x="688" 
d="M633 621q8 11 12 22t4 26q0 34 -24 57.5t-58 23.5h-433q-34 0 -58 -23.5t-24 -57.5t24 -57.5t58 -23.5h263l-334 -457q-8 -11 -12.5 -22.5t-4.5 -27.5q0 -34 24 -57.5t57 -23.5h453q34 0 57.5 23.5t23.5 57.5t-23.5 57.5t-57.5 23.5h-286z" />
    <glyph glyph-name="bracketleft" unicode="[" horiz-adv-x="352" 
d="M46 0q0 -31 12 -58.5t32 -47.5t47.5 -32t58.5 -12h60q29 0 49 20t20 49q0 28 -20 48t-49 20h-24q-20 0 -34 14t-14 34v680q0 20 14 34t34 14h24q29 0 49 20t20 48q0 29 -20 49t-49 20h-60q-31 0 -58.5 -12t-47.5 -32t-32 -47.5t-12 -58.5v-750z" />
    <glyph glyph-name="backslash" unicode="\" horiz-adv-x="682" 
d="M525 31q12 -16 29 -24t35 -8q15 0 29.5 6t26 16.5t18.5 26t7 33.5q0 27 -17 50l-495 637q-12 15 -29 23t-35 8q-12 0 -26.5 -4.5t-26.5 -14.5t-20.5 -25t-8.5 -37q0 -28 18 -50z" />
    <glyph glyph-name="bracketright" unicode="]" horiz-adv-x="345" 
d="M299 0v750q0 31 -12 58.5t-32 47.5t-47.5 32t-58.5 12h-60q-29 0 -49 -20t-20 -49q0 -28 20 -48t49 -20h24q20 0 34 -14t14 -34v-680q0 -20 -14 -34t-34 -14h-24q-29 0 -49 -20t-20 -48q0 -29 20 -49t49 -20h60q31 0 58.5 12t47.5 32t32 47.5t12 58.5z" />
    <glyph glyph-name="asciicircum" unicode="^" horiz-adv-x="280" 
d="M168 750q-13 13 -28 13t-28 -13l-82 -82q-10 -10 -10 -27q0 -15 11 -26t26 -11q13 0 26 11l57 56l56 -56q11 -11 26 -11t26.5 11t11.5 26q0 16 -11 27z" />
    <glyph glyph-name="underscore" unicode="_" horiz-adv-x="546" 
d="M580 -185q9 0 14 10t5 45t-5 45t-14 10h-561q-9 0 -14 -10t-5 -45t5 -45t14 -10h561z" />
    <glyph glyph-name="grave" unicode="`" horiz-adv-x="221" 
d="M138 578q15 -10 30 -10q14 0 23.5 9.5t9.5 23.5t-10 31l-63 98q-7 11 -18 15.5t-22 4.5q-29 0 -48.5 -19.5t-19.5 -48.5q0 -12 4.5 -23t15.5 -18z" />
    <glyph glyph-name="a" unicode="a" horiz-adv-x="626" 
d="M304 409q27 0 50 -10t40.5 -27.5t27.5 -41t10 -50.5t-10 -50.5t-27.5 -41t-40.5 -27.5t-50 -10t-50.5 10t-41 27.5t-27.5 41t-10 50.5t10 50.5t27.5 41t41 27.5t50.5 10zM587 483q0 32 -22.5 54.5t-54.5 22.5q-27 0 -48 -18t-26 -39q-3 2 -14 11t-30.5 19.5t-47.5 18.5
t-65 8q-47 0 -93.5 -21t-83 -58t-59.5 -88.5t-23 -112.5t23 -112t59.5 -88.5t83 -58.5t93.5 -21q37 0 65 8t47.5 18.5t30.5 19.5t14 11q5 -21 26 -39t48 -18q32 0 54.5 23t22.5 55v405z" />
    <glyph glyph-name="b" unicode="b" horiz-adv-x="633" 
d="M355 0q47 0 93 21t83 58.5t59.5 88.5t22.5 112t-22.5 112.5t-59.5 88.5t-83 58t-93 21q-36 0 -62 -8t-43.5 -17.5t-27.5 -17.5t-15 -8q-6 0 -6 21v143q0 16 -6 30t-16.5 24.5t-25 16.5t-30.5 6q-32 0 -54.5 -22.5t-22.5 -54.5v-595q0 -16 6 -30.5t16.5 -25t24.5 -16.5
t30 -6q28 0 48.5 18t25.5 39q3 -2 14 -11t30.5 -19.5t47.5 -18.5t66 -8zM458 280q0 -27 -10 -50.5t-27.5 -41t-40.5 -27.5t-50 -10t-50.5 10t-41 27.5t-27.5 41t-10 50.5t10 50.5t27.5 41t41 27.5t50.5 10t50 -10t40.5 -27.5t27.5 -41t10 -50.5z" />
    <glyph glyph-name="c" unicode="c" horiz-adv-x="552" 
d="M498 65q18 17 26 33.5t8 32.5q0 30 -23.5 51t-54.5 21q-23 0 -37 -9t-28 -20.5t-32.5 -20.5t-50.5 -9q-28 0 -53 10.5t-43.5 29t-29 43.5t-10.5 53t10.5 53t29 43.5t43.5 29t53 10.5q30 0 49 -9t34 -20t29.5 -20t35.5 -9q31 0 54.5 20.5t23.5 50.5q0 16 -8 32.5t-26 33.5
q-32 29 -81 50t-111 21q-59 0 -111 -21t-91 -59t-61.5 -90.5t-22.5 -115.5t22.5 -115.5t61.5 -90.5t91 -59t111 -21q62 0 111 21t81 50z" />
    <glyph glyph-name="d" unicode="d" horiz-adv-x="633" 
d="M436 57q5 -21 26 -39t48 -18q32 0 54.5 23t22.5 55v595q0 32 -22.5 54.5t-54.5 22.5q-16 0 -30.5 -6t-25 -16.5t-16.5 -24.5t-6 -30v-143q0 -21 -6 -21q-5 0 -15 8t-27.5 17.5t-43 17.5t-61.5 8q-47 0 -93.5 -21t-83 -58t-59.5 -88.5t-23 -112.5t23 -112t59.5 -88.5
t83 -58.5t93.5 -21q37 0 65 8t47.5 18.5t30.5 19.5t14 11zM304 409q27 0 50 -10t40.5 -27.5t27.5 -41t10 -50.5t-10 -50.5t-27.5 -41t-40.5 -27.5t-50 -10t-50.5 10t-41 27.5t-27.5 41t-10 50.5t10 50.5t27.5 41t41 27.5t50.5 10z" />
    <glyph glyph-name="e" unicode="e" horiz-adv-x="566" 
d="M241 189l261 109q23 9 33.5 27.5t10.5 43.5q0 45 -20.5 81t-54 62t-77 40t-88.5 14q-59 0 -111 -21t-91 -59t-61.5 -90.5t-22.5 -115.5t22.5 -115.5t61.5 -90.5t91 -59t111 -21q60 0 110 20.5t82 50.5q23 23 23 52q0 16 -6.5 30.5t-17.5 25.5t-25.5 18t-29.5 7
q-20 0 -31.5 -8.5l-24 -18.5t-30.5 -18.5t-50 -8.5q-11 0 -25 3t-26 7.5t-20 10t-8 11.5q0 7 14 13zM179 314q0 15 9.5 33t26.5 33t40 25.5t51 10.5q29 0 50 -9t21 -20q0 -8 -14 -14l-162 -68q-6 -2 -10 -2q-5 0 -8.5 2.5t-3.5 8.5z" />
    <glyph glyph-name="f" unicode="f" horiz-adv-x="412" 
d="M245 410h46q29 0 49 20t20 49t-20 49t-49 20h-46v25q0 14 3.5 23.5t16.5 9.5q10 0 19.5 -4t18.5 -8.5l16.5 -8t15.5 -3.5q23 0 40 21t17 47t-13 45.5t-33.5 33t-45.5 20.5t-50 7q-41 0 -71 -14t-50 -38.5t-29.5 -58t-9.5 -72.5v-25h-1q-29 0 -49 -20t-20 -49t20 -49
t49 -20h1v-333q0 -32 22.5 -54.5t54.5 -22.5q16 0 30.5 6t25 16.5t16.5 24.5t6 30v333z" />
    <glyph glyph-name="g" unicode="g" horiz-adv-x="626" 
d="M175 280q0 27 10 50.5t27.5 41t41 27.5t50.5 10t50 -10t40.5 -27.5t27.5 -41t10 -50.5t-10 -50.5t-27.5 -41t-40.5 -27.5t-50 -10t-50.5 10t-41 27.5t-27.5 41t-10 50.5zM587 19v464q0 32 -22.5 54.5t-54.5 22.5q-27 0 -48 -18t-26 -39q-3 2 -14 11t-30.5 19.5
t-47.5 18.5t-65 8q-47 0 -93.5 -21t-83 -58t-59.5 -88.5t-23 -112.5t23 -112t59.5 -88.5t83 -58.5t93.5 -21q36 0 61.5 8t43 17.5t27.5 17.5t15 8q6 0 6 -21v-11q0 -28 -13 -49.5t-32.5 -36t-42.5 -22t-43 -7.5q-30 0 -52.5 10.5t-41.5 23l-36 23t-36 10.5q-16 0 -30.5 -6
t-25.5 -16.5t-17.5 -25t-6.5 -30.5q0 -33 23.5 -58.5t58 -43.5t75 -27.5t75.5 -9.5q55 0 108.5 18t96 52.5t69 83.5t26.5 111z" />
    <glyph glyph-name="h" unicode="h" horiz-adv-x="570" 
d="M201 535v138q0 16 -6 30t-16.5 24.5t-25 16.5t-30.5 6q-32 0 -54.5 -22.5t-22.5 -54.5v-595q0 -16 6 -30.5t16.5 -25t24.5 -16.5t30 -6q32 0 55 23t23 55v240q0 36 25.5 61.5t61.5 25.5q37 0 62.5 -25.5t25.5 -61.5v-240q0 -16 6 -30.5t16.5 -25t24.5 -16.5t30 -6
q32 0 55 23t23 55v240q0 50 -19.5 94t-52.5 77t-77 52t-94 19q-26 0 -44.5 -5.5t-42.5 -19.5z" />
    <glyph glyph-name="i" unicode="i" horiz-adv-x="233" 
d="M33 673q0 -35 24 -59.5t59 -24.5t59.5 24.5t24.5 59.5t-24.5 59t-59.5 24t-59 -24t-24 -59zM194 483q0 16 -6 30t-16.5 24.5t-25 16.5t-30.5 6q-32 0 -54.5 -22.5t-22.5 -54.5v-405q0 -16 6 -30.5t16.5 -25t24.5 -16.5t30 -6q32 0 55 23t23 55v405z" />
    <glyph glyph-name="j" unicode="j" horiz-adv-x="238" 
d="M32 673q0 -35 24 -59.5t59 -24.5t59.5 24.5t24.5 59.5t-24.5 59t-59.5 24t-59 -24t-24 -59zM193 483q0 16 -6 30t-16.5 24.5t-25 16.5t-30.5 6q-32 0 -54.5 -22.5t-22.5 -54.5v-483q0 -28 -8 -43.5t-19.5 -26t-25 -17t-25 -16t-19.5 -24t-8 -39.5q0 -32 23.5 -48.5
t56.5 -16.5q37 0 70 14.5t57.5 43t38.5 72t14 101.5v483z" />
    <glyph glyph-name="k" unicode="k" horiz-adv-x="553" 
d="M201 230l188 -202q13 -14 30.5 -21t34.5 -7q11 0 24 4t24 13t18.5 24t7.5 36q0 15 -5.5 30t-17.5 26l-174 168l176 125q14 10 20 25t6 31q0 21 -8 36t-19.5 24.5t-24.5 13.5t-24 4q-27 0 -49 -18l-207 -166v297q0 16 -6 30t-16.5 24.5t-25 16.5t-30.5 6
q-32 0 -54.5 -22.5t-22.5 -54.5v-595q0 -16 6 -30.5t16.5 -25t24.5 -16.5t30 -6q32 0 55 23t23 55v152z" />
    <glyph glyph-name="l" unicode="l" horiz-adv-x="247" 
d="M201 673q0 16 -6 30t-16.5 24.5t-25 16.5t-30.5 6q-32 0 -54.5 -22.5t-22.5 -54.5v-595q0 -16 6 -30.5t16.5 -25t24.5 -16.5t30 -6q32 0 55 23t23 55v595z" />
    <glyph glyph-name="m" unicode="m" horiz-adv-x="858" 
d="M429 506q-29 26 -68 43t-89 17q-48 0 -90.5 -18.5t-74 -50t-50 -74t-18.5 -90.5v-255q0 -32 22.5 -55t54.5 -23t55 23t23 55v255q0 32 23 55t55 23q33 0 56 -23t23 -55v-255q0 -32 23 -55t55 -23q16 0 30 6t24.5 16.5t16.5 25t6 30.5v255q0 32 23 55t56 23q32 0 55.5 -23
t23.5 -55v-255q0 -32 22.5 -55t54.5 -23t55 23t23 55v255q0 48 -18.5 90.5t-50 74t-74.5 50t-91 18.5q-49 0 -88.5 -17t-67.5 -43z" />
    <glyph glyph-name="n" unicode="n" horiz-adv-x="560" 
d="M280 566q-50 0 -94 -19t-76.5 -51.5t-51.5 -76.5t-19 -94v-247q0 -32 22.5 -55t54.5 -23t55 23t23 55v255q0 34 25.5 56t60.5 22q34 0 60 -22t26 -56v-255q0 -32 23 -55t55 -23q16 0 30 6t24.5 16.5t16.5 25t6 30.5v247q0 50 -19 94t-51.5 76.5t-76.5 51.5t-94 19z" />
    <glyph glyph-name="o" unicode="o" horiz-adv-x="612" 
d="M306 -6q59 0 111 21t91 59t61.5 90.5t22.5 115.5t-22.5 115.5t-61.5 90.5t-91 59t-111 21t-111 -21t-91 -59t-61.5 -90.5t-22.5 -115.5t22.5 -115.5t61.5 -90.5t91 -59t111 -21zM170 280q0 28 10.5 53t29 43.5t43.5 29t53 10.5t53 -10.5t43.5 -29t29 -43.5t10.5 -53
t-10.5 -53t-29 -43.5t-43.5 -29t-53 -10.5t-53 10.5t-43.5 29t-29 43.5t-10.5 53z" />
    <glyph glyph-name="p" unicode="p" horiz-adv-x="633" 
d="M354 560q-37 0 -65.5 -8t-48 -18.5t-30 -19.5t-13.5 -11q-5 21 -26 39t-48 18q-32 0 -54.5 -22.5t-22.5 -54.5v-596q0 -32 22.5 -54.5t54.5 -22.5q16 0 30.5 6t25 16.5t16.5 24.5t6 30v143q0 21 6 21q5 0 15 -8t27.5 -17.5t43 -17.5t61.5 -8q47 0 93.5 21t83 58.5
t59.5 88.5t23 112t-23 112.5t-59.5 88.5t-83 58t-93.5 21zM458 280q0 -27 -10 -50.5t-27.5 -41t-41 -27.5t-50.5 -10t-50 10t-40.5 27.5t-27.5 41t-10 50.5t10 50.5t27.5 41t40.5 27.5t50 10t50.5 -10t41 -27.5t27.5 -41t10 -50.5z" />
    <glyph glyph-name="q" unicode="q" horiz-adv-x="633" 
d="M436 503q-3 2 -14 11t-30.5 19.5t-47.5 18.5t-65 8q-47 0 -93.5 -21t-83 -58t-59.5 -88.5t-23 -112.5t23 -112t59.5 -88.5t83 -58.5t93.5 -21q36 0 61.5 8t43 17.5t27.5 17.5t15 8q6 0 6 -21v-143q0 -16 6 -30t16.5 -24.5t25 -16.5t30.5 -6q32 0 54.5 22.5t22.5 54.5v596
q0 32 -22.5 54.5t-54.5 22.5q-27 0 -48 -18t-26 -39zM304 151q-27 0 -50.5 10t-41 27.5t-27.5 41t-10 50.5t10 50.5t27.5 41t41 27.5t50.5 10t50 -10t40.5 -27.5t27.5 -41t10 -50.5t-10 -50.5t-27.5 -41t-40.5 -27.5t-50 -10z" />
    <glyph glyph-name="r" unicode="r" horiz-adv-x="422" 
d="M194 355q0 16 4.5 25.5t10.5 14t13 6t12 1.5q11 0 19.5 -4.5t17.5 -10.5t20.5 -10.5t28.5 -4.5q16 0 32 7t28.5 19.5t20.5 30.5t8 40t-9 39.5t-24 28.5t-34 17t-38 6q-20 0 -37.5 -5.5t-32.5 -13t-27 -15t-19 -12.5q-8 18 -27.5 32t-44.5 14q-32 0 -54.5 -22.5
t-22.5 -54.5v-405q0 -32 22.5 -55t54.5 -23t55 23t23 55v277z" />
    <glyph glyph-name="s" unicode="s" horiz-adv-x="506" 
d="M480 184q0 50 -19.5 80.5t-48.5 48.5t-63 27.5l-63 18t-48.5 20t-19.5 34.5q0 11 7.5 17t18.5 6q19 0 32.5 -7.5l27.5 -16t30.5 -16t40.5 -7.5q28 0 47.5 20t19.5 47q0 24 -14.5 44t-40.5 34.5t-62.5 23t-80.5 8.5q-48 0 -83 -13t-58.5 -36t-34.5 -54t-11 -68
q0 -47 19.5 -76t48.5 -47.5t63.5 -28.5l63.5 -19t48.5 -20.5t19.5 -30.5q0 -20 -19 -28.5t-39 -8.5q-23 0 -42.5 13.5t-38 29.5t-38.5 29.5t-42 13.5q-35 0 -55.5 -19.5t-20.5 -59.5q0 -33 23.5 -60t58.5 -47t75 -31t73 -11q46 0 86.5 12t71.5 35.5t49 59t18 83.5z" />
    <glyph glyph-name="t" unicode="t" horiz-adv-x="387" 
d="M185 0q32 0 54.5 23t22.5 55v345h37q28 0 48 20t20 48q0 29 -20 49t-48 20h-37v88q0 32 -22.5 54.5t-54.5 22.5q-16 0 -30.5 -6t-25 -16.5t-16.5 -24.5t-6 -30v-88h-18q-29 0 -49 -20t-20 -49q0 -28 20 -48t49 -20h18v-345q0 -32 23 -55t55 -23z" />
    <glyph glyph-name="u" unicode="u" horiz-adv-x="560" 
d="M280 -6q50 0 94 19t76.5 51.5t51.5 76.5t19 94v248q0 32 -22.5 54.5t-54.5 22.5q-16 0 -30.5 -6t-25 -16.5t-16.5 -24.5t-6 -30v-255q0 -35 -26 -57t-60 -22q-35 0 -60.5 22t-25.5 57v255q0 16 -6 30t-16.5 24.5t-25 16.5t-30.5 6q-32 0 -54.5 -22.5t-22.5 -54.5v-248
q0 -50 19 -94t51.5 -76.5t76.5 -51.5t94 -19z" />
    <glyph glyph-name="v" unicode="v" horiz-adv-x="555" 
d="M160 514q-9 21 -27.5 33.5t-40.5 12.5q-9 0 -22.5 -3.5t-26 -12.5t-21.5 -24.5t-9 -38.5q0 -17 7 -31l183 -405q11 -23 30 -34t45 -11q25 0 44 11t30 34l183 405q7 14 7 32q0 23 -8.5 38t-21 24t-26 12.5t-22.5 3.5q-22 0 -41 -12.5t-28 -33.5l-117 -279z" />
    <glyph glyph-name="w" unicode="w" horiz-adv-x="806" 
d="M402 560q-26 0 -45.5 -12t-27.5 -36l-87 -252l-79 249q-8 24 -28.5 37.5t-44.5 13.5q-21 0 -35.5 -8t-23.5 -19.5t-13.5 -25t-4.5 -25.5t5 -27l150 -406q8 -23 25 -36t41 -13q58 0 77 48l91 234l95 -234q20 -48 73 -48q25 0 42.5 13t25.5 36l150 406q5 15 5 27t-4.5 25.5
t-13.5 25t-23.5 19.5t-35.5 8q-24 0 -44.5 -13.5t-28.5 -37.5l-79 -248l-86 251q-8 25 -29 36.5t-47 11.5z" />
    <glyph glyph-name="x" unicode="x" horiz-adv-x="556" 
d="M176 288l-138 -161q-18 -21 -18 -50q0 -14 5.5 -27.5t15.5 -24.5t24.5 -18t32.5 -7q17 0 32.5 6.5t26.5 20.5l121 141l121 -141q11 -14 26.5 -20.5t32.5 -6.5t31 7t24.5 18t16.5 24.5t6 27.5q0 26 -19 50l-137 161l123 144q19 24 19 50q0 21 -8 36t-20 24t-25.5 13.5
t-24.5 4.5q-17 0 -32.5 -7t-26.5 -21l-107 -125l-107 125q-25 28 -59 28q-11 0 -24.5 -4.5t-25.5 -13.5t-20 -24t-8 -36q0 -26 19 -50z" />
    <glyph glyph-name="y" unicode="y" horiz-adv-x="567" 
d="M281 234l-121 282q-9 21 -28 32.5t-42 11.5q-20 0 -34 -7.5t-24 -18.5t-14.5 -25t-4.5 -27q0 -16 8 -34l184 -381l-25 -54q-7 -15 -17.5 -24.5t-24.5 -9.5q-11 0 -18 3l-14 6t-16 6t-24 3q-30 0 -51 -21.5t-21 -51.5q0 -24 11.5 -42.5t30.5 -31.5t42.5 -19.5t47.5 -6.5
q65 0 105 32t67 87l249 505q7 15 7 33t-7 33t-18 25t-24.5 15.5t-27.5 5.5q-22 0 -40.5 -11.5t-28.5 -32.5z" />
    <glyph glyph-name="z" unicode="z" horiz-adv-x="515" 
d="M39 137q-11 -13 -15 -24.5t-4 -28.5q0 -35 24.5 -59.5t59.5 -24.5h322q29 0 49 20t20 49q0 28 -20 48t-49 20h-187l234 286q11 13 15.5 24.5t4.5 28.5q0 35 -24.5 59.5t-59.5 24.5h-300q-29 0 -49 -20t-20 -49q0 -28 20 -48t49 -20h165z" />
    <glyph glyph-name="braceleft" unicode="{" horiz-adv-x="477" 
d="M171 616h-6q-29 0 -54 -11t-43.5 -29.5t-29.5 -44t-11 -53.5v-206q0 -29 11 -54t29.5 -43.5t43.5 -29.5t54 -11h6v-134q0 -31 12 -58.5t32 -47.5t47.5 -32t58.5 -12h60q29 0 49 20t20 49q0 28 -20 48t-49 20h-24q-20 0 -34 14t-14 34v237h-68q-29 0 -49 20t-20 49v68
q0 29 20 49t49 20h68v237q0 20 14 34t34 14h24q29 0 49 20t20 48q0 29 -20 49t-49 20h-60q-31 0 -58.5 -12t-47.5 -32t-32 -47.5t-12 -58.5v-134z" />
    <glyph glyph-name="bar" unicode="|" horiz-adv-x="229" 
d="M183 750q0 29 -20 49t-48 20q-29 0 -49 -20t-20 -49v-1000q0 -29 20 -49t49 -20q28 0 48 20t20 49v1000z" />
    <glyph glyph-name="braceright" unicode="}" horiz-adv-x="477" 
d="M306 616v134q0 31 -12 58.5t-32 47.5t-47.5 32t-58.5 12h-60q-29 0 -49 -20t-20 -49q0 -28 20 -48t49 -20h24q20 0 34 -14t14 -34v-237h68q29 0 49 -20t20 -49v-68q0 -29 -20 -49t-49 -20h-68v-237q0 -20 -14 -34t-34 -14h-24q-29 0 -49 -20t-20 -48q0 -29 20 -49t49 -20
h60q31 0 58.5 12t47.5 32t32 47.5t12 58.5v134h6q28 0 53.5 11t44 29.5t29.5 43.5t11 54v206q0 28 -11 53.5t-29.5 44t-44 29.5t-53.5 11h-6z" />
    <glyph glyph-name="asciitilde" unicode="~" horiz-adv-x="490" 
d="M151 688q23 0 39.5 -17t16.5 -40q0 -31 10.5 -55t28 -41t41.5 -26t51 -9t51 10.5t42 28t28.5 41.5t10.5 51q0 16 -11 27t-27 11t-26.5 -11t-10.5 -27q0 -23 -17 -39.5t-40 -16.5t-39.5 16.5t-16.5 39.5q0 31 -10.5 55.5t-28 41.5t-41.5 26t-51 9t-51 -10.5t-41.5 -28.5
t-28 -42t-10.5 -51q0 -15 10.5 -26t26.5 -11t27 11t11 26q0 23 16.5 40t39.5 17z" />
    <glyph glyph-name="quotesinglbase" unicode="&#x201a;" 
d="M215 98q0 20 -7.5 37.5t-21 31t-31.5 21t-38 7.5t-38 -7.5t-31 -21t-20.5 -31t-7.5 -37.5q0 -30 15.5 -53t38.5 -34l-9 -21q-5 -12 -5 -20q0 -21 15 -36t36 -15q16 0 29 8.5t19 22.5l48 110q8 17 8 38z" />
    <glyph glyph-name="florin" unicode="&#x192;" horiz-adv-x="842" 
d="M46 750v-750h750v750h-750z" />
    <glyph glyph-name="quotedblbase" unicode="&#x201e;" 
d="M215 98q0 20 -7.5 37.5t-21 31t-31.5 21t-38 7.5t-38 -7.5t-31 -21t-20.5 -31t-7.5 -37.5q0 -30 15.5 -53t38.5 -34l-9 -21q-5 -12 -5 -20q0 -21 15 -36t36 -15q16 0 29 8.5t19 22.5l48 110q8 17 8 38zM434 98q0 20 -7.5 37.5t-21 31t-31.5 21t-38 7.5t-38 -7.5t-31 -21
t-20.5 -31t-7.5 -37.5q0 -30 15.5 -53t38.5 -34l-9 -21q-5 -12 -5 -20q0 -21 15 -36t36 -15q16 0 29 8.5t19 22.5l48 110q8 17 8 38z" />
    <glyph glyph-name="ellipsis" unicode="&#x2026;" horiz-adv-x="675" 
d="M20 98q0 -41 28 -69.5t69 -28.5t69.5 28.5t28.5 69.5q0 20 -7.5 37.5t-21 31t-31.5 21t-38 7.5t-38 -7.5t-31 -21t-20.5 -31t-7.5 -37.5zM240 98q0 -41 28 -69.5t69 -28.5t69.5 28.5t28.5 69.5q0 20 -7.5 37.5t-21 31t-31.5 21t-38 7.5t-38 -7.5t-31 -21t-20.5 -31
t-7.5 -37.5zM460 98q0 -41 28 -69.5t69 -28.5t69.5 28.5t28.5 69.5q0 20 -7.5 37.5t-21 31t-31.5 21t-38 7.5t-38 -7.5t-31 -21t-20.5 -31t-7.5 -37.5z" />
    <glyph glyph-name="dagger" unicode="&#x2020;" horiz-adv-x="390" 
d="M250 520h65q23 0 39 16t16 39t-16 39t-39 16h-65v65q0 23 -16 39t-39 16t-39 -16t-16 -39v-65h-65q-23 0 -39 -16t-16 -39t16 -39t39 -16h65v-260q0 -23 16 -39t39 -16t39 16t16 39v260z" />
    <glyph glyph-name="daggerdbl" unicode="&#x2021;" horiz-adv-x="390" 
d="M140 370h-65q-23 0 -39 -16t-16 -39t16 -39t39 -16h65v-65q0 -23 16 -39t39 -16t39 16t16 39v65h65q23 0 39 16t16 39t-16 39t-39 16h-65v150h65q23 0 39 16t16 39t-16 39t-39 16h-65v65q0 23 -16 39t-39 16t-39 -16t-16 -39v-65h-65q-23 0 -39 -16t-16 -39t16 -39
t39 -16h65v-150z" />
    <glyph glyph-name="circumflex" unicode="&#x2c6;" horiz-adv-x="280" 
d="M168 750q-13 13 -28 13t-28 -13l-82 -82q-10 -10 -10 -27q0 -15 11 -26t26 -11q13 0 26 11l57 56l56 -56q11 -11 26 -11t26.5 11t11.5 26q0 16 -11 27z" />
    <glyph glyph-name="perthousand" unicode="&#x2030;" horiz-adv-x="1376" 
d="M214 375q40 0 75 15.5t61 41.5t41.5 61.5t15.5 75.5t-15.5 75.5t-41.5 61.5t-61 41.5t-75 15.5t-75.5 -15.5t-61.5 -41.5t-41.5 -61.5t-15.5 -75.5t15.5 -75.5t41.5 -61.5t61.5 -41.5t75.5 -15.5zM130 569q0 35 24.5 59.5t59.5 24.5t59 -24.5t24 -59.5t-24 -59.5
t-59 -24.5t-59.5 24.5t-24.5 59.5zM735 -13q40 0 75.5 15.5t61.5 42t41.5 61.5t15.5 75t-15.5 75.5t-41.5 61.5t-61.5 41.5t-75.5 15.5t-75.5 -15.5t-61.5 -41.5t-41.5 -61.5t-15.5 -75.5t15.5 -75t41.5 -61.5t61.5 -42t75.5 -15.5zM651 181q0 35 24.5 59.5t59.5 24.5
t59.5 -24.5t24.5 -59.5t-24.5 -59t-59.5 -24t-59.5 24t-24.5 59zM311 31l495 637q18 22 18 50q0 22 -8.5 37t-20.5 25t-26.5 14.5t-26.5 4.5q-18 0 -35 -8t-29 -23l-495 -637q-17 -23 -17 -50q0 -18 7 -33.5t18.5 -26t26 -16.5t29.5 -6q18 0 35 8t29 24zM1162 -13
q40 0 75.5 15.5t61.5 42t41.5 61.5t15.5 75t-15.5 75.5t-41.5 61.5t-61.5 41.5t-75.5 15.5t-75.5 -15.5t-61.5 -41.5t-41.5 -61.5t-15.5 -75.5t15.5 -75t41.5 -61.5t61.5 -42t75.5 -15.5zM1078 181q0 35 24.5 59.5t59.5 24.5t59.5 -24.5t24.5 -59.5t-24.5 -59t-59.5 -24
t-59.5 24t-24.5 59z" />
    <glyph glyph-name="Scaron" unicode="&#x160;" horiz-adv-x="616" 
d="M589 239q0 47 -15.5 82t-42 61t-62.5 44t-77 30l-89 27q-23 7 -37.5 15t-22.5 16t-11 17.5t-3 19.5q0 31 25 51.5t57 20.5q18 0 35 -6t32 -15t27 -19t20 -18q11 -11 28.5 -18t36.5 -7q26 0 47.5 17.5t21.5 60.5q0 27 -18 53t-50.5 46.5t-77.5 33t-99 12.5q-52 0 -99 -13
t-83 -40.5t-57 -70t-21 -100.5q0 -41 15.5 -73t41.5 -56t60.5 -41t72.5 -29l85 -26q33 -11 59 -30.5t26 -50.5q0 -10 -5 -24t-16 -27t-29 -22.5t-44 -9.5q-39 0 -67 16t-50.5 35.5t-43 35.5t-46.5 16q-35 0 -59.5 -24.5t-24.5 -59.5t24 -67.5t62.5 -58t87 -41t97.5 -15.5
q59 0 111.5 14.5t92 45.5t62.5 78.5t23 113.5zM180 950q0 -31 10.5 -55t28 -41t41.5 -26t51 -9t51 10.5t42 28t28.5 41.5t10.5 51q0 16 -11 27t-27 11t-26.5 -11t-10.5 -27q0 -23 -17 -39.5t-40 -16.5t-39.5 16.5t-16.5 39.5q0 16 -11 27t-27 11t-26.5 -11t-10.5 -27z" />
    <glyph glyph-name="guilsinglleft" unicode="&#x2039;" horiz-adv-x="275" 
d="M12 375q0 -23 15 -39l134 -134q16 -16 39 -16q22 0 38.5 15t16.5 39q0 21 -16 39l-95 96l95 95q16 16 16 39q0 25 -17 40t-38 15q-23 0 -39 -16l-134 -134q-15 -15 -15 -39z" />
    <glyph glyph-name="OE" unicode="&#x152;" horiz-adv-x="1146" 
d="M195 375q0 44 16.5 82.5t45.5 67.5t67.5 45.5t82.5 16.5t83 -16.5t68 -45.5t45.5 -67.5t16.5 -82.5t-16.5 -82.5t-45.5 -67.5t-68 -46t-83 -17t-82.5 17t-67.5 46t-45.5 67.5t-16.5 82.5zM626 56q4 -8 10 -17.5t16 -18t23.5 -14.5t31.5 -6h338q34 0 57.5 23.5t23.5 57.5
t-23.5 57.5t-57.5 23.5h-250v148h192q32 0 53.5 22t21.5 53t-21.5 53t-53.5 22h-192v127h250q34 0 57.5 24t23.5 58q0 33 -23.5 57t-57.5 24h-338q-18 0 -31.5 -6t-23.5 -14.5t-16 -18t-10 -17.5q-43 29 -97.5 48.5t-121.5 19.5q-80 0 -150.5 -30t-123 -82.5t-83 -123.5
t-30.5 -151t30.5 -151t83 -123.5t123 -83t150.5 -30.5q68 0 122 20t97 49z" />
    <glyph glyph-name="quoteleft" unicode="&#x2018;" 
d="M20 584q0 -20 7.5 -37.5t21 -31t31.5 -21t38 -7.5t38 7.5t31 21t20.5 31t7.5 37.5q0 30 -15.5 53t-38.5 34l9 21q5 12 5 20q0 21 -15 36t-36 15q-16 0 -29 -8.5t-19 -22.5l-48 -110q-8 -17 -8 -38z" />
    <glyph glyph-name="quoteright" unicode="&#x2019;" 
d="M215 666q0 20 -7.5 37.5t-21 31t-31.5 21t-38 7.5t-38 -7.5t-31 -21t-20.5 -31t-7.5 -37.5q0 -30 15.5 -53t38.5 -34l-9 -21q-5 -12 -5 -20q0 -21 15 -36t36 -15q16 0 29 8.5t19 22.5l48 110q8 17 8 38z" />
    <glyph glyph-name="quotedblleft" unicode="&#x201c;" horiz-adv-x="455" 
d="M20 584q0 -20 7.5 -37.5t21 -31t31.5 -21t38 -7.5t38 7.5t31 21t20.5 31t7.5 37.5q0 30 -15.5 53t-38.5 34l9 21q5 12 5 20q0 21 -15 36t-36 15q-16 0 -29 -8.5t-19 -22.5l-48 -110q-8 -17 -8 -38zM240 584q0 -20 7.5 -37.5t21 -31t31.5 -21t38 -7.5t38 7.5t31 21
t20.5 31t7.5 37.5q0 30 -15.5 53t-38.5 34l9 21q5 12 5 20q0 21 -15 36t-36 15q-16 0 -29 -8.5t-19 -22.5l-48 -110q-8 -17 -8 -38z" />
    <glyph glyph-name="quotedblright" unicode="&#x201d;" horiz-adv-x="455" 
d="M215 666q0 20 -7.5 37.5t-21 31t-31.5 21t-38 7.5t-38 -7.5t-31 -21t-20.5 -31t-7.5 -37.5q0 -30 15.5 -53t38.5 -34l-9 -21q-5 -12 -5 -20q0 -21 15 -36t36 -15q16 0 29 8.5t19 22.5l48 110q8 17 8 38zM435 666q0 20 -7.5 37.5t-21 31t-31.5 21t-38 7.5t-38 -7.5
t-31 -21t-20.5 -31t-7.5 -37.5q0 -30 15.5 -53t38.5 -34l-9 -21q-5 -12 -5 -20q0 -21 15 -36t36 -15q16 0 29 8.5t19 22.5l48 110q8 17 8 38z" />
    <glyph glyph-name="bullet" unicode="&#x2022;" horiz-adv-x="290" 
d="M145 250q26 0 48.5 10t39.5 27t27 39.5t10 48.5t-10 48.5t-27 39.5t-39.5 27t-48.5 10t-48.5 -10t-39.5 -27t-27 -39.5t-10 -48.5t10 -48.5t27 -39.5t39.5 -27t48.5 -10z" />
    <glyph glyph-name="endash" unicode="&#x2013;" horiz-adv-x="540" 
d="M470 325q20 0 35 15t15 35q0 21 -15 35.5t-35 14.5h-400q-21 0 -35.5 -14.5t-14.5 -35.5q0 -20 14.5 -35t35.5 -15h400z" />
    <glyph glyph-name="emdash" unicode="&#x2014;" horiz-adv-x="1040" 
d="M970 325q20 0 35 15t15 35q0 21 -15 35.5t-35 14.5h-900q-21 0 -35.5 -14.5t-14.5 -35.5q0 -20 14.5 -35t35.5 -15h900z" />
    <glyph glyph-name="tilde" unicode="&#x2dc;" horiz-adv-x="490" 
d="M151 688q23 0 39.5 -17t16.5 -40q0 -31 10.5 -55t28 -41t41.5 -26t51 -9t51 10.5t42 28t28.5 41.5t10.5 51q0 16 -11 27t-27 11t-26.5 -11t-10.5 -27q0 -23 -17 -39.5t-40 -16.5t-39.5 16.5t-16.5 39.5q0 31 -10.5 55.5t-28 41.5t-41.5 26t-51 9t-51 -10.5t-41.5 -28.5
t-28 -42t-10.5 -51q0 -15 10.5 -26t26.5 -11t27 11t11 26q0 23 16.5 40t39.5 17z" />
    <glyph glyph-name="trademark" unicode="&#x2122;" horiz-adv-x="1138" 
d="M73 750q-25 0 -42.5 -17.5t-17.5 -42.5q0 -24 17.5 -41.5t42.5 -17.5h109v-367q0 -26 19 -45t45 -19t45 19t19 45v367h109q25 0 42.5 17.5t17.5 41.5q0 25 -17.5 42.5t-42.5 17.5h-346zM984 701q-7 29 -26.5 39t-34.5 10q-20 0 -36 -11.5t-24 -31.5l-87 -237l-87 237
q-8 20 -24 31.5t-36 11.5q-15 0 -34 -10t-27 -39l-106 -422q-2 -10 -2 -15q0 -18 7 -30.5t16.5 -20t21 -10.5t20.5 -3q21 0 38.5 13t22.5 35l55 218l82 -224q7 -19 20 -30.5t33 -11.5t33.5 11.5t20.5 30.5l81 224l55 -218q5 -22 22.5 -35t38.5 -13q18 0 30.5 6.5t20 16.5
t11 21t3.5 20q0 5 -2 15z" />
    <glyph glyph-name="scaron" unicode="&#x161;" horiz-adv-x="506" 
d="M480 184q0 50 -19.5 80.5t-48.5 48.5t-63 27.5l-63 18t-48.5 20t-19.5 34.5q0 11 7.5 17t18.5 6q19 0 32.5 -7.5l27.5 -16t30.5 -16t40.5 -7.5q28 0 47.5 20t19.5 47q0 24 -14.5 44t-40.5 34.5t-62.5 23t-80.5 8.5q-48 0 -83 -13t-58.5 -36t-34.5 -54t-11 -68
q0 -47 19.5 -76t48.5 -47.5t63.5 -28.5l63.5 -19t48.5 -20.5t19.5 -30.5q0 -20 -19 -28.5t-39 -8.5q-23 0 -42.5 13.5t-38 29.5t-38.5 29.5t-42 13.5q-35 0 -55.5 -19.5t-20.5 -59.5q0 -33 23.5 -60t58.5 -47t75 -31t73 -11q46 0 86.5 12t71.5 35.5t49 59t18 83.5zM141 725
q0 -50 30.5 -77.5t74.5 -27.5q22 0 41 8t33.5 22.5t23 33.5t8.5 41q0 13 -9 21.5t-22 8.5t-21 -8.5t-8 -21.5q0 -19 -13.5 -32t-32.5 -13t-32 13t-13 32q0 13 -8.5 21.5t-21.5 8.5t-21.5 -8.5t-8.5 -21.5z" />
    <glyph glyph-name="guilsinglright" unicode="&#x203a;" horiz-adv-x="275" 
d="M263 375q0 24 -15 39l-134 134q-16 16 -39 16q-21 0 -38 -15t-17 -40q0 -23 16 -39l95 -95l-95 -96q-16 -18 -16 -39q0 -24 16.5 -39t38.5 -15q23 0 39 16l134 134q15 16 15 39z" />
    <glyph glyph-name="oe" unicode="&#x153;" horiz-adv-x="989" 
d="M170 280q0 28 10.5 53t29 43.5t43.5 29t53 10.5t53 -10.5t43.5 -29t29 -43.5t10.5 -53t-10.5 -53t-29 -43.5t-43.5 -29t-53 -10.5t-53 10.5t-43.5 29t-29 43.5t-10.5 53zM601 314q0 15 9.5 33t26.5 33t40.5 25.5t51.5 10.5t49.5 -9t21.5 -20q0 -8 -15 -14l-162 -68
q-6 -2 -9 -2q-13 0 -13 11zM517 84q38 -40 91 -65t121 -25q60 0 110 20.5t82 50.5q13 11 18 24.5t5 26.5q0 16 -6.5 31t-17.5 26.5t-25.5 18.5t-29.5 7q-18 0 -30 -8.5t-24.5 -19t-31 -19t-50.5 -8.5q-11 0 -25 3t-26 7.5t-20 10.5t-8 12t13 12l262 109q23 9 33.5 27.5
t10.5 43.5q0 45 -20.5 81t-54 62t-77 40t-88.5 14q-63 0 -120.5 -25t-91.5 -64q-36 38 -89 63.5t-122 25.5q-59 0 -111 -21t-91 -59t-61.5 -90.5t-22.5 -115.5t22.5 -115.5t61.5 -90.5t91 -59t111 -21q68 0 121 25t90 65z" />
    <glyph glyph-name="Ydieresis" unicode="&#x178;" horiz-adv-x="648" 
d="M621 613q10 15 13.5 31.5t0.5 33t-12 31.5t-24 25t-32 13.5t-33.5 0.5t-31.5 -12t-25 -24l-153 -220l-153 220q-10 15 -25 24t-31.5 12t-33.5 -0.5t-32 -13.5t-24 -25t-12 -31.5t0.5 -33t13.5 -31.5l210 -303v-222q0 -37 25.5 -62.5t61.5 -25.5t62 25.5t26 62.5v222z
M386 923q-20 0 -34.5 -14.5t-14.5 -34.5t14.5 -34.5t34.5 -14.5t34.5 14.5t14.5 34.5t-14.5 34.5t-34.5 14.5zM263 923q-20 0 -34.5 -14.5t-14.5 -34.5t14.5 -34.5t34.5 -14.5t34.5 14.5t14.5 34.5t-14.5 34.5t-34.5 14.5z" />
    <glyph glyph-name="exclamdown" unicode="&#xa1;" horiz-adv-x="287" 
d="M46 653q0 -41 28 -69.5t69 -28.5t69.5 28.5t28.5 69.5q0 20 -7.5 37.5t-21 31t-31.5 21t-38 7.5t-38 -7.5t-31 -21t-20.5 -31t-7.5 -37.5zM62 431v-350q0 -33 23.5 -57t57.5 -24t57.5 24t23.5 57v350q0 34 -23.5 58t-57.5 24t-57.5 -24t-23.5 -58z" />
    <glyph glyph-name="cent" unicode="&#xa2;" horiz-adv-x="552" 
d="M246 95v-10q0 -25 17.5 -42.5t42.5 -17.5t42.5 17.5t17.5 42.5v10q27 6 63.5 21t68.5 44q18 17 26 33.5t8 32.5q0 30 -23.5 51t-54.5 21q-23 0 -37 -9t-27.5 -20.5t-32 -20.5t-51.5 -9q-28 0 -53 10.5t-43.5 29t-29 43.5t-10.5 53t10.5 53t29 43.5t43.5 29t53 10.5
q31 0 50 -9t33.5 -20t29 -20t35.5 -9q31 0 54.5 20.5t23.5 50.5q0 16 -8 32.5t-26 33.5q-32 30 -68.5 44.5t-63.5 21.5v9q0 25 -17.5 42.5t-42.5 17.5t-42.5 -17.5t-17.5 -42.5v-10q-41 -9 -81 -30t-72.5 -55.5t-52.5 -83t-20 -111.5t19.5 -111t51 -82.5t72.5 -56t83 -30.5z
" />
    <glyph glyph-name="sterling" unicode="&#xa3;" horiz-adv-x="655" 
d="M281 449q-4 7 -7.5 24.5t-3.5 33.5q0 15 5 30.5t15.5 28t27 20.5t39.5 8q25 0 42 -10t27.5 -25.5t14.5 -34t4 -35.5q0 -36 25.5 -62t61.5 -26t62 27t26 87q0 44 -18.5 88t-52.5 79.5t-83 58t-109 22.5q-58 0 -106.5 -20.5t-83.5 -55t-54.5 -81t-19.5 -97.5
q0 -19 4.5 -34.5l7.5 -25.5h-4q-34 0 -57.5 -24t-23.5 -57q0 -34 23.5 -58t57.5 -24h26q-6 -30 -15.5 -55.5l-18.5 -49t-16 -46t-7 -45.5q0 -45 25 -67.5t62 -22.5h396q34 0 58 23.5t24 57.5t-24 57.5t-58 23.5h-297q13 27 22.5 56.5t16.5 67.5h25q33 0 57 24t24 58
q0 33 -24 57t-57 24h-39z" />
    <glyph glyph-name="currency" unicode="&#xa4;" horiz-adv-x="598" 
d="M124 399q-15 -23 -23.5 -51t-8.5 -59q0 -30 8.5 -58t23.5 -52l-90 -90q-14 -14 -14 -33q0 -18 14 -32t32 -14q19 0 33 14l90 90q23 -15 51 -23.5t59 -8.5t59 8.5t52 23.5l89 -90q14 -14 33 -14q18 0 32 14t14 32q0 19 -14 33l-90 90q15 24 23.5 52t8.5 58t-8.5 58
t-23.5 52l90 90q14 14 14 33q0 18 -14 32t-32 14q-19 0 -33 -14l-90 -90q-23 15 -51 23.5t-59 8.5q-30 0 -58 -8.5t-52 -23.5l-90 90q-14 14 -33 14q-18 0 -32 -14t-14 -32q0 -19 14 -33zM299 404q24 0 45 -9t36.5 -24.5t24.5 -36.5t9 -45t-9 -45t-24.5 -36.5t-36.5 -24.5
t-45 -9t-45 9t-36.5 24.5t-24.5 36.5t-9 45t9 45t24.5 36.5t36.5 24.5t45 9z" />
    <glyph glyph-name="yen" unicode="&#xa5;" horiz-adv-x="648" 
d="M438 348h92q23 0 39 16t16 39t-16 39t-39 16h-16l107 155q15 22 15 50q0 36 -25.5 61.5t-61.5 25.5q-21 0 -40 -9.5t-32 -28.5l-153 -220l-153 220q-13 19 -32 28.5t-40 9.5q-36 0 -61.5 -25.5t-25.5 -61.5q0 -28 15 -50l107 -155h-16q-23 0 -39 -16t-16 -39t16 -39
t39 -16h93l26 -38v-37h-57q-23 0 -39 -16t-16 -39t16 -39t39 -16h57v-75q0 -37 25.5 -62.5t61.5 -25.5t62 25.5t26 62.5v75h56q23 0 39 16t16 39t-16 39t-39 16h-56v37z" />
    <glyph glyph-name="brokenbar" unicode="&#xa6;" horiz-adv-x="247" 
d="M201 259q0 16 -6 30t-16.5 24.5t-25 16.5t-30.5 6q-32 0 -54.5 -22.5t-22.5 -54.5v-181q0 -16 6 -30.5t16.5 -25t24.5 -16.5t30 -6q32 0 55 23t23 55v181zM201 673q0 16 -6 30t-16.5 24.5t-25 16.5t-30.5 6q-32 0 -54.5 -22.5t-22.5 -54.5v-181q0 -16 6 -30.5t16.5 -25
t24.5 -16.5t30 -6q32 0 55 23t23 55v181z" />
    <glyph glyph-name="section" unicode="&#xa7;" horiz-adv-x="616" 
d="M200 480l255 -147q8 -5 12.5 -13.5t4.5 -18.5q0 -16 -10.5 -27t-26.5 -11q-10 0 -17 4l-255 148q-19 11 -19 33q0 16 10.5 27t26.5 11q6 0 10.5 -2t8.5 -4zM466 149q33 7 56 23.5t38 38t22 45.5t7 45q0 42 -20.5 77.5t-55.5 55.5l-226 131q-14 8 -20 19t-6 25
q0 19 13.5 33t33.5 14q25 0 45 -17.5t20 -47.5q0 -20 13.5 -33.5t33.5 -13.5t33.5 13.5t13.5 33.5q0 33 -12.5 62t-34 50.5t-50.5 34t-62 12.5q-31 0 -59 -11.5t-49.5 -32t-35 -48t-14.5 -58.5q-33 -7 -56 -23.5t-38 -38t-22 -45.5t-7 -45q0 -37 17.5 -73t59.5 -61l231 -132
q12 -7 16.5 -16.5t4.5 -24.5q0 -20 -12 -33.5t-36 -13.5q-26 0 -45.5 18.5t-19.5 46.5q0 20 -13.5 33.5t-33.5 13.5t-33.5 -13.5t-13.5 -33.5q0 -33 12.5 -62t34 -50.5t50.5 -34t62 -12.5q31 0 59 11.5t49.5 31.5t35 47t14.5 59z" />
    <glyph glyph-name="dieresis" unicode="&#xa8;" horiz-adv-x="260" 
d="M20 701q0 -20 14 -34t34 -14t34.5 14t14.5 34t-14.5 34.5t-34.5 14.5t-34 -14.5t-14 -34.5zM142 701q0 -20 14.5 -34t34.5 -14t34.5 14t14.5 34t-14.5 34.5t-34.5 14.5t-34.5 -14.5t-14.5 -34.5z" />
    <glyph glyph-name="copyright" unicode="&#xa9;" horiz-adv-x="790" 
d="M395 0q78 0 146 29.5t119 80.5t80.5 119t29.5 146t-29.5 146t-80.5 119t-119 80.5t-146 29.5t-146 -29.5t-119 -80.5t-80.5 -119t-29.5 -146t29.5 -146t80.5 -119t119 -80.5t146 -29.5zM82 375q0 64 24.5 121t67.5 100t99.5 67.5t121.5 24.5q64 0 121 -24.5t99.5 -67.5
t67 -100t24.5 -121q0 -65 -24.5 -121.5t-67 -99t-99.5 -67t-121 -24.5q-65 0 -121.5 24.5t-99.5 67t-67.5 99t-24.5 121.5zM393 143q58 0 104 20.5t76 57.5q12 15 12 32q0 13 -6.5 23.5t-16 18t-20 11.5t-17.5 4q-16 0 -26.5 -9.5l-23.5 -21.5t-32 -21.5t-50 -9.5
q-26 0 -49.5 10t-41 27t-27.5 40.5t-10 49.5t10 49.5t27.5 41t41 27.5t49.5 10q31 0 49.5 -10t32 -21.5l24.5 -21.5t26 -10q6 0 16 3.5t20 10.5t17 17.5t7 25.5q0 18 -12 32q-30 37 -76 58t-104 21q-48 0 -90.5 -18.5t-74 -50t-50 -74t-18.5 -90.5t18.5 -90.5t50 -74
t74 -49.5t90.5 -18z" />
    <glyph glyph-name="ordfeminine" unicode="&#xaa;" horiz-adv-x="399" 
d="M190 520q32 0 54.5 -22.5t22.5 -54.5t-22.5 -54.5t-54.5 -22.5t-54.5 22.5t-22.5 54.5t22.5 54.5t54.5 22.5zM360 565q0 19 -13.5 32.5t-32.5 13.5q-17 0 -29 -10.5t-16 -23.5q-2 1 -8 6.5t-18 11.5t-29 11t-39 5q-28 0 -56 -12.5t-50 -35t-35.5 -53t-13.5 -67.5
q0 -36 13.5 -67t35.5 -53.5t50 -35t56 -12.5q22 0 39 5t29 11t18 11.5t8 6.5q4 -12 16 -23t29 -11q19 0 32.5 13.5t13.5 33.5v243zM26 175q0 -11 0.5 -24t11.5 -13h309q11 0 11.5 13t0.5 24q0 12 -0.5 25t-11.5 13h-309q-11 0 -11.5 -13t-0.5 -25z" />
    <glyph glyph-name="guillemotleft" unicode="&#xab;" horiz-adv-x="275" 
d="M12 375q0 -23 15 -39l134 -134q16 -16 39 -16q22 0 38.5 15t16.5 39q0 21 -16 39l-95 96l95 95q16 16 16 39q0 25 -17 40t-38 15q-23 0 -39 -16l-134 -134q-15 -15 -15 -39zM250 375q0 -23 15 -39l134 -134q16 -16 39 -16q22 0 38.5 15t16.5 39q0 21 -16 39l-95 96l95 95
q16 16 16 39q0 25 -17 40t-38 15q-23 0 -39 -16l-134 -134q-15 -15 -15 -39z" />
    <glyph glyph-name="logicalnot" unicode="&#xac;" horiz-adv-x="390" 
d="M370 375q0 23 -16 39t-39 16h-240q-23 0 -39 -16t-16 -39t16 -39t39 -16h185v-55q0 -23 16 -39t39 -16t39 16t16 39v110z" />
    <glyph glyph-name="registered" unicode="&#xae;" horiz-adv-x="577" 
d="M289 213q55 0 104 21t85.5 57.5t57.5 85t21 104.5t-21 105t-57.5 85.5t-85.5 57.5t-104 21q-56 0 -105 -21t-85.5 -57.5t-57.5 -85.5t-21 -105t21 -104.5t57.5 -85t85.5 -57.5t105 -21zM70 481q0 45 17 85t47 70t70 47t85 17t84.5 -17t69.5 -47t47 -70t17 -85t-17 -84.5
t-47 -69.5t-69.5 -47t-84.5 -17t-85 17t-70 47t-47 69.5t-17 84.5zM303 571q17 0 30 -12.5t13 -29.5q0 -18 -13 -30.5t-30 -12.5h-41v85h41zM266 422l91 -78q10 -8 22 -8q18 0 26 11t8 23q0 15 -12 26l-56 45q7 3 18 8.5t22 15.5t19 25.5t8 38.5q0 22 -8.5 41.5t-23.5 34
t-34.5 23t-41.5 8.5h-77q-14 0 -24.5 -10.5t-10.5 -24.5v-230q0 -14 10 -24.5t25 -10.5q14 0 24.5 10.5t10.5 24.5v51h4z" />
    <glyph glyph-name="macron" unicode="&#xaf;" horiz-adv-x="390" 
d="M315 640q23 0 39 16t16 39t-16 39t-39 16h-240q-23 0 -39 -16t-16 -39t16 -39t39 -16h240z" />
    <glyph glyph-name="degree" unicode="&#xb0;" horiz-adv-x="340" 
d="M20 600q0 -31 12 -58.5t32 -47.5t47.5 -32t58.5 -12t58.5 12t47.5 32t32 47.5t12 58.5t-12 58.5t-32 47.5t-47.5 32t-58.5 12t-58.5 -12t-47.5 -32t-32 -47.5t-12 -58.5zM170 525q-32 0 -53.5 22t-21.5 53t21.5 53t53.5 22q31 0 53 -22t22 -53t-22 -53t-53 -22z" />
    <glyph glyph-name="plusminus" unicode="&#xb1;" horiz-adv-x="390" 
d="M250 403h65q23 0 39 16t16 39t-16 39t-39 16h-65v65q0 23 -16 39t-39 16t-39 -16t-16 -39v-65h-65q-23 0 -39 -16t-16 -39t16 -39t39 -16h65v-65q0 -23 16 -39t39 -16t39 16t16 39v65zM315 118q23 0 39 16t16 39t-16 39t-39 16h-240q-23 0 -39 -16t-16 -39t16 -39t39 -16
h240z" />
    <glyph glyph-name="twosuperior" unicode="&#xb2;" horiz-adv-x="367" 
d="M43 389q-6 -6 -10 -15t-4 -20q0 -20 14 -34.5t34 -14.5h220q20 0 34.5 14.5t14.5 34.5t-14.5 34t-34.5 14h-99l84 79q30 28 47.5 59.5t17.5 65.5q0 33 -13 61.5t-34.5 50t-51 33.5t-62.5 12q-34 0 -64.5 -13.5t-53 -36t-35.5 -53t-13 -64.5q0 -22 15 -37t37 -15t37.5 15
t15.5 37q0 32 18.5 50.5t41.5 18.5q24 0 41 -16t17 -40q0 -17 -6.5 -28.5t-18.5 -23.5z" />
    <glyph glyph-name="threesuperior" unicode="&#xb3;" horiz-adv-x="371" 
d="M152 631q7 31 34 31q14 0 23.5 -10t9.5 -24q0 -17 -8.5 -23.5t-18 -11t-18 -12t-8.5 -26.5t12.5 -25.5t27.5 -13t27.5 -18.5t12.5 -42q0 -25 -17.5 -42.5t-42.5 -17.5t-42.5 17.5t-17.5 42.5q0 22 -16 38t-39 16q-22 0 -36.5 -16t-14.5 -38v-6q0 -26 12 -53t34 -49
t52 -36.5t66 -14.5q34 0 64.5 12.5t53 35t36 52t13.5 64.5q0 27 -8 46t-18.5 31.5t-20.5 18.5t-15 8q20 11 28 32t8 41q0 27 -11.5 49.5t-30.5 39.5t-44 26.5t-52 9.5q-26 0 -50.5 -7.5t-44 -22t-31 -35t-11.5 -46.5q0 -21 14.5 -38.5t36.5 -17.5q18 0 32.5 10t18.5 25z" />
    <glyph glyph-name="acute" unicode="&#xb4;" horiz-adv-x="221" 
d="M83 578l98 63q11 7 15.5 18t4.5 23q0 25 -18.5 46.5t-49.5 21.5q-11 0 -22 -4.5t-18 -15.5l-63 -98q-10 -17 -10 -30q0 -16 10.5 -25t22.5 -9q15 0 30 10z" />
    <glyph glyph-name="mu" unicode="&#xb5;" horiz-adv-x="580" 
d="M59 235q0 -67 -1.5 -117.5t-5 -89.5t-10.5 -69.5t-18 -58.5q-4 -9 -4 -19q0 -20 16 -20q25 0 46.5 13t39.5 35.5t32.5 52.5t25.5 64q55 -32 120 -32q23 0 44.5 4t41.5 12v-10q0 -16 6 -30t16.5 -24.5t25 -16.5t30.5 -6q32 0 54.5 22.5t22.5 54.5v483q1 32 -22 54.5
t-55 22.5q-16 0 -30.5 -6t-25 -16.5t-16.5 -24.5t-6 -30v-255q0 -35 -26 -57t-60 -22q-35 0 -60.5 22t-25.5 57v255q0 16 -6 30t-16.5 24.5t-25 16.5t-30.5 6q-32 0 -54.5 -22.5t-22.5 -54.5v-248z" />
    <glyph glyph-name="paragraph" unicode="&#xb6;" horiz-adv-x="881" 
d="M660 588v-500q0 -37 25.5 -62.5t62.5 -25.5q36 0 61.5 25.5t25.5 62.5v575q0 36 -25.5 61.5t-61.5 25.5h-460q-56 0 -104.5 -21t-85 -57.5t-57.5 -85.5t-21 -105t21 -104.5t57.5 -85t85 -57.5t104.5 -21h109v-125q0 -37 25.5 -62.5t62.5 -25.5q36 0 61.5 25.5t25.5 62.5
v500h88z" />
    <glyph glyph-name="periodcentered" unicode="&#xb7;" 
d="M20 375q0 -41 28 -69.5t69 -28.5t69.5 28.5t28.5 69.5q0 20 -7.5 37.5t-21 31t-31.5 21t-38 7.5t-38 -7.5t-31 -21t-20.5 -31t-7.5 -37.5z" />
    <glyph glyph-name="periodcentered" unicode="&#x2219;" 
d="M20 375q0 -41 28 -69.5t69 -28.5t69.5 28.5t28.5 69.5q0 20 -7.5 37.5t-21 31t-31.5 21t-38 7.5t-38 -7.5t-31 -21t-20.5 -31t-7.5 -37.5z" />
    <glyph glyph-name="onesuperior" unicode="&#xb9;" horiz-adv-x="243" 
d="M99 353q0 -23 15 -38t37 -15q23 0 38 15t15 38v345q0 21 -15.5 36.5t-37.5 15.5h-82q-20 0 -34.5 -14.5t-14.5 -34.5t14.5 -34t34.5 -14h30v-300z" />
    <glyph glyph-name="ordmasculine" unicode="&#xba;" horiz-adv-x="383" 
d="M192 269q35 0 66 12.5t54.5 35.5t37 54.5t13.5 69.5q0 37 -13.5 68.5t-37 54.5t-54.5 35.5t-66 12.5q-36 0 -67 -12.5t-54.5 -35.5t-37 -54.5t-13.5 -68.5q0 -38 13.5 -69.5t37 -54.5t54.5 -35.5t67 -12.5zM110 441q0 34 24 57.5t58 23.5t57.5 -23.5t23.5 -57.5
t-23.5 -58t-57.5 -24t-58 24t-24 58zM26 175q0 -11 0.5 -24t11.5 -13h307q11 0 11.5 13t0.5 24q0 12 -0.5 25t-11.5 13h-307q-11 0 -11.5 -13t-0.5 -25z" />
    <glyph glyph-name="guillemotright" unicode="&#xbb;" horiz-adv-x="275" 
d="M263 375q0 24 -15 39l-134 134q-16 16 -39 16q-21 0 -38 -15t-17 -40q0 -23 16 -39l95 -95l-95 -96q-16 -18 -16 -39q0 -24 16.5 -39t38.5 -15q23 0 39 16l134 134q15 16 15 39zM501 375q0 24 -15 39l-134 134q-16 16 -39 16q-21 0 -38 -15t-17 -40q0 -23 16 -39l95 -95
l-95 -96q-16 -18 -16 -39q0 -24 16.5 -39t38.5 -15q23 0 39 16l134 134q15 16 15 39z" />
    <glyph glyph-name="onequarter" unicode="&#xbc;" horiz-adv-x="1117" 
d="M119 254q0 -28 19 -47t46 -19q28 0 47 19t19 47v431q0 26 -19.5 45.5t-46.5 19.5h-103q-26 0 -43.5 -17.5t-17.5 -43.5q0 -25 17.5 -43t43.5 -18h38v-374zM304 23l500 642q13 18 13 37q0 16 -6 28t-15.5 19t-20 10.5t-19.5 3.5q-14 0 -26.5 -6t-21.5 -17l-500 -642
q-12 -17 -12 -37q0 -28 19 -44.5t41 -16.5q14 0 26.5 6t21.5 17zM741 235l154 207v-207h-154zM623 235v-47q0 -27 19 -46t46 -19h207v-57q0 -27 19 -46.5t47 -19.5q27 0 46 19.5t19 46.5v57h15q23 0 39.5 16.5t16.5 39.5t-16.5 39.5t-39.5 16.5h-15v263q0 27 -19 46t-46 19
h-85q-21 0 -35 -7.5t-19 -15.5l-175 -236q-15 -20 -19.5 -35t-4.5 -34z" />
    <glyph glyph-name="onehalf" unicode="&#xbd;" horiz-adv-x="1150" 
d="M119 254q0 -28 19 -47t46 -19q28 0 47 19t19 47v431q0 26 -19.5 45.5t-46.5 19.5h-103q-26 0 -43.5 -17.5t-17.5 -43.5q0 -25 17.5 -43t43.5 -18h38v-374zM304 23l500 642q13 18 13 37q0 16 -6 28t-15.5 19t-20 10.5t-19.5 3.5q-14 0 -26.5 -6t-21.5 -17l-500 -642
q-12 -17 -12 -37q0 -28 19 -44.5t41 -16.5q14 0 26.5 6t21.5 17zM742 104q-8 -8 -13 -18.5t-5 -24.5q0 -26 17.5 -43.5t43.5 -17.5h274q26 0 44 17.5t18 43.5q0 25 -18 43t-44 18h-123l105 98q38 35 60 74.5t22 81.5q0 41 -16 77t-43.5 62.5t-64.5 41.5t-78 15
q-43 0 -80.5 -16.5t-66 -45t-45 -66t-16.5 -80.5q0 -27 19 -46.5t46 -19.5t46.5 19.5t19.5 46.5q0 39 23 62.5t52 23.5q30 0 51.5 -20.5t21.5 -49.5q0 -21 -8 -36t-23 -29z" />
    <glyph glyph-name="threequarters" unicode="&#xbe;" horiz-adv-x="1260" 
d="M447 23l500 642q13 18 13 37q0 16 -6 28t-15.5 19t-20 10.5t-19.5 3.5q-14 0 -26.5 -6t-21.5 -17l-500 -642q-12 -17 -12 -37q0 -28 19 -44.5t41 -16.5q14 0 26.5 6t21.5 17zM884 235l154 207v-207h-154zM766 235v-47q0 -27 19 -46t46 -19h207v-57q0 -27 19 -46.5
t47 -19.5q27 0 46 19.5t19 46.5v57h15q23 0 39.5 16.5t16.5 39.5t-16.5 39.5t-39.5 16.5h-15v263q0 27 -19 46t-46 19h-85q-21 0 -35 -7.5t-19 -15.5l-175 -236q-15 -20 -19.5 -35t-4.5 -34zM185 598q5 17 15.5 28t27.5 11t29 -13t12 -30q0 -21 -10.5 -29t-22.5 -14
t-22.5 -15t-10.5 -33q0 -23 15.5 -31.5t34.5 -16.5t34.5 -23.5t15.5 -52.5q0 -30 -22 -52.5t-53 -22.5t-53 22.5t-22 52.5q0 28 -20.5 48t-48.5 20q-27 0 -45.5 -20t-18.5 -48v-8q0 -32 15 -65.5t42.5 -61t65 -45.5t82.5 -18q43 0 81 16t66.5 43.5t45.5 65t17 80.5
q0 34 -10 57.5t-23.5 38.5t-26 23t-18.5 10q24 14 34 40.5t10 50.5q0 33 -14 62t-38 50t-55 33t-65 12q-32 0 -63 -9.5t-55 -27.5t-39 -43.5t-15 -58.5q0 -26 18.5 -47.5t46.5 -21.5q23 0 40.5 12t22.5 31z" />
    <glyph glyph-name="questiondown" unicode="&#xbf;" horiz-adv-x="567" 
d="M383 652q0 41 -28.5 69.5t-69.5 28.5t-69 -28.5t-28 -69.5q0 -20 7.5 -37.5t20.5 -31t31 -21t38 -7.5t38 7.5t31.5 21t21 31t7.5 37.5zM285 137q-24 0 -44.5 9t-36.5 25t-25 36.5t-9 44.5t9 45t25 36.5t36.5 24.5t44.5 9q31 0 53 22t22 53q0 32 -22 53.5t-53 21.5
q-54 0 -102.5 -20.5t-84.5 -56.5t-57 -84.5t-21 -103.5t21 -103t57 -84t84 -57t103 -21q44 0 80.5 12t65.5 32t51 45t36.5 51t21.5 50.5t7 42.5q0 35 -22.5 55.5t-51.5 20.5q-28 0 -49 -17t-26 -44q-7 -44 -38 -71t-75 -27z" />
    <glyph glyph-name="Agrave" unicode="&#xc0;" horiz-adv-x="732" 
d="M369 505l90 -219h-182zM555 51q10 -24 32 -37.5t47 -13.5q36 0 61 25t25 62q0 18 -7 35l-261 587q-23 54 -83 54q-58 0 -83 -54l-266 -587q-8 -18 -8 -35q0 -24 9 -40.5t22 -27t28 -15t27 -4.5q25 0 47 13.5t32 37.5l36 85h307zM356 829q15 -10 30 -10q12 0 22.5 9
t10.5 25q0 13 -10 30l-63 98q-7 11 -18 15.5t-22 4.5q-31 0 -49.5 -21.5t-18.5 -46.5q0 -12 4.5 -23t15.5 -18z" />
    <glyph glyph-name="Aacute" unicode="&#xc1;" horiz-adv-x="732" 
d="M369 505l90 -219h-182zM555 51q10 -24 32 -37.5t47 -13.5q36 0 61 25t25 62q0 18 -7 35l-261 587q-23 54 -83 54q-58 0 -83 -54l-266 -587q-8 -18 -8 -35q0 -24 9 -40.5t22 -27t28 -15t27 -4.5q25 0 47 13.5t32 37.5l36 85h307zM393 829l98 63q11 7 15.5 18t4.5 23
q0 25 -18.5 46.5t-49.5 21.5q-11 0 -22 -4.5t-18 -15.5l-63 -98q-10 -17 -10 -30q0 -16 10.5 -25t22.5 -9q15 0 30 10z" />
    <glyph glyph-name="Acircumflex" unicode="&#xc2;" horiz-adv-x="732" 
d="M369 505l90 -219h-182zM555 51q10 -24 32 -37.5t47 -13.5q36 0 61 25t25 62q0 18 -7 35l-261 587q-23 54 -83 54q-58 0 -83 -54l-266 -587q-8 -18 -8 -35q0 -24 9 -40.5t22 -27t28 -15t27 -4.5q25 0 47 13.5t32 37.5l36 85h307zM399 970q-13 13 -28 13t-28 -13l-82 -82
q-10 -10 -10 -27q0 -15 11 -26t26 -11q13 0 26 11l57 56l56 -56q11 -11 26 -11t26.5 11t11.5 26q0 16 -11 27z" />
    <glyph glyph-name="Atilde" unicode="&#xc3;" horiz-adv-x="732" 
d="M369 505l90 -219h-182zM555 51q10 -24 32 -37.5t47 -13.5q36 0 61 25t25 62q0 18 -7 35l-261 587q-23 54 -83 54q-58 0 -83 -54l-266 -587q-8 -18 -8 -35q0 -24 9 -40.5t22 -27t28 -15t27 -4.5q25 0 47 13.5t32 37.5l36 85h307zM313 939q15 0 26 -11t11 -27
q0 -41 25.5 -63.5t60.5 -22.5q18 0 34 7t28 18.5t18.5 27t6.5 33.5q0 11 -7 18t-18 7q-10 0 -17 -7t-7 -18q0 -15 -11 -26t-27 -11q-15 0 -26 11t-11 26q0 42 -25.5 64.5t-60.5 22.5q-36 0 -61 -25t-25 -62q0 -10 6.5 -17t17.5 -7t18 7t7 17q0 16 11 27t26 11z" />
    <glyph glyph-name="Adieresis" unicode="&#xc4;" horiz-adv-x="732" 
d="M384 874q0 -20 14.5 -34.5t34.5 -14.5t34.5 14.5t14.5 34.5t-14.5 34.5t-34.5 14.5t-34.5 -14.5t-14.5 -34.5zM369 505l90 -219h-182zM555 51q10 -24 32 -37.5t47 -13.5q36 0 61 25t25 62q0 18 -7 35l-261 587q-23 54 -83 54q-58 0 -83 -54l-266 -587q-8 -18 -8 -35
q0 -24 9 -40.5t22 -27t28 -15t27 -4.5q25 0 47 13.5t32 37.5l36 85h307zM261 874q0 -20 14.5 -34.5t34.5 -14.5t34.5 14.5t14.5 34.5t-14.5 34.5t-34.5 14.5t-34.5 -14.5t-14.5 -34.5z" />
    <glyph glyph-name="Aring" unicode="&#xc5;" horiz-adv-x="732" 
d="M370 1015q-41 0 -69.5 -28.5t-28.5 -69.5t28.5 -69.5t69.5 -28.5t69.5 28.5t28.5 69.5t-28.5 69.5t-69.5 28.5zM370 966q20 0 34.5 -14.5t14.5 -34.5t-14.5 -34.5t-34.5 -14.5t-34.5 14.5t-14.5 34.5t14.5 34.5t34.5 14.5zM369 505l90 -219h-182zM555 51q10 -24 32 -37.5
t47 -13.5q36 0 61 25t25 62q0 18 -7 35l-261 587q-23 54 -83 54q-58 0 -83 -54l-266 -587q-8 -18 -8 -35q0 -24 9 -40.5t22 -27t28 -15t27 -4.5q25 0 47 13.5t32 37.5l36 85h307z" />
    <glyph glyph-name="AE" unicode="&#xc6;" horiz-adv-x="1038" 
d="M512 428v-142h-123zM535 722l-502 -578q-11 -12 -16 -27t-5 -30q0 -36 25.5 -61.5t61.5 -25.5q18 0 35.5 7t30.5 22l93 107h254v-49q0 -36 25.5 -61.5t61.5 -25.5h338q33 0 57 23.5t24 57.5t-24 57.5t-57 23.5h-250v148h192q31 0 53 22t22 53t-22 53t-53 22h-192v128h250
q33 0 57 23.5t24 57.5t-24 57.5t-57 23.5h-338q-20 0 -36.5 -7.5t-27.5 -20.5z" />
    <glyph glyph-name="Ccedilla" unicode="&#xc7;" horiz-adv-x="754" 
d="M445 -11q72 5 141.5 36t120.5 93q20 25 20 54q0 22 -11.5 40t-27 30t-32.5 18.5t-29 6.5q-16 0 -31.5 -8t-31.5 -27q-23 -26 -64.5 -47.5t-92.5 -21.5q-44 0 -82.5 16.5t-67.5 45.5t-45.5 67.5t-16.5 82.5t16.5 82.5t45.5 67.5t67.5 46t82.5 17q51 0 92.5 -21.5
t64.5 -48.5q15 -18 31 -26t31 -8q19 0 37.5 8.5t32.5 22.5t22.5 30.5t8.5 33.5q0 28 -20 53q-51 62 -127 96.5t-173 34.5q-80 0 -150 -30.5t-123 -83t-83.5 -123.5t-30.5 -151q0 -76 27.5 -143t74.5 -118.5t111 -84t137 -39.5v-40q0 -16 -11 -27t-27 -11h-56
q-16 0 -26.5 -10.5t-10.5 -26.5t10.5 -27t26.5 -11h56q23 0 43.5 9t36 24.5t24.5 36t9 43.5v39z" />
    <glyph glyph-name="Egrave" unicode="&#xc8;" horiz-adv-x="572" 
d="M471 0q34 0 57.5 23.5t23.5 57.5t-23.5 57.5t-57.5 23.5h-250v148h192q32 0 53.5 22t21.5 53t-21.5 53t-53.5 22h-192v128h250q34 0 57.5 23.5t23.5 57.5t-23.5 57.5t-57.5 23.5h-338q-36 0 -61.5 -25.5t-25.5 -61.5v-576q0 -36 25.5 -61.5t61.5 -25.5h338zM309 829
q15 -10 30 -10q12 0 22.5 9t10.5 25q0 13 -10 30l-63 98q-7 11 -18 15.5t-22 4.5q-31 0 -49.5 -21.5t-18.5 -46.5q0 -12 4.5 -23t15.5 -18z" />
    <glyph glyph-name="Eacute" unicode="&#xc9;" horiz-adv-x="572" 
d="M471 0q34 0 57.5 23.5t23.5 57.5t-23.5 57.5t-57.5 23.5h-250v148h192q32 0 53.5 22t21.5 53t-21.5 53t-53.5 22h-192v128h250q34 0 57.5 23.5t23.5 57.5t-23.5 57.5t-57.5 23.5h-338q-36 0 -61.5 -25.5t-25.5 -61.5v-576q0 -36 25.5 -61.5t61.5 -25.5h338zM281 829
l98 63q11 7 15.5 18t4.5 23q0 25 -18.5 46.5t-49.5 21.5q-11 0 -22 -4.5t-18 -15.5l-63 -98q-10 -17 -10 -30q0 -16 10.5 -25t22.5 -9q15 0 30 10z" />
    <glyph glyph-name="Ecircumflex" unicode="&#xca;" horiz-adv-x="572" 
d="M471 0q34 0 57.5 23.5t23.5 57.5t-23.5 57.5t-57.5 23.5h-250v148h192q32 0 53.5 22t21.5 53t-21.5 53t-53.5 22h-192v128h250q34 0 57.5 23.5t23.5 57.5t-23.5 57.5t-57.5 23.5h-338q-36 0 -61.5 -25.5t-25.5 -61.5v-576q0 -36 25.5 -61.5t61.5 -25.5h338zM311 970
q-13 13 -28 13t-28 -13l-82 -82q-10 -10 -10 -27q0 -15 11 -26t26 -11q13 0 26 11l57 56l56 -56q11 -11 26 -11t26.5 11t11.5 26q0 16 -11 27z" />
    <glyph glyph-name="Edieresis" unicode="&#xcb;" horiz-adv-x="572" 
d="M471 0q34 0 57.5 23.5t23.5 57.5t-23.5 57.5t-57.5 23.5h-250v148h192q32 0 53.5 22t21.5 53t-21.5 53t-53.5 22h-192v128h250q34 0 57.5 23.5t23.5 57.5t-23.5 57.5t-57.5 23.5h-338q-36 0 -61.5 -25.5t-25.5 -61.5v-576q0 -36 25.5 -61.5t61.5 -25.5h338zM298 874
q0 -20 14.5 -34.5t34.5 -14.5t34.5 14.5t14.5 34.5t-14.5 34.5t-34.5 14.5t-34.5 -14.5t-14.5 -34.5zM175 874q0 -20 14.5 -34.5t34.5 -14.5t34.5 14.5t14.5 34.5t-14.5 34.5t-34.5 14.5t-34.5 -14.5t-14.5 -34.5z" />
    <glyph glyph-name="Igrave" unicode="&#xcc;" horiz-adv-x="267" 
d="M46 663v-575q0 -37 25.5 -62.5t61.5 -25.5q37 0 62.5 25.5t25.5 62.5v575q0 36 -25.5 61.5t-62.5 25.5q-36 0 -61.5 -25.5t-25.5 -61.5zM102 829q15 -10 30 -10q12 0 22.5 9t10.5 25q0 13 -10 30l-63 98q-7 11 -18 15.5t-22 4.5q-31 0 -49.5 -21.5t-18.5 -46.5
q0 -12 4.5 -23t15.5 -18z" />
    <glyph glyph-name="Iacute" unicode="&#xcd;" horiz-adv-x="267" 
d="M46 663v-575q0 -37 25.5 -62.5t61.5 -25.5q37 0 62.5 25.5t25.5 62.5v575q0 36 -25.5 61.5t-62.5 25.5q-36 0 -61.5 -25.5t-25.5 -61.5zM160 829l98 63q11 7 15.5 18t4.5 23q0 25 -18.5 46.5t-49.5 21.5q-11 0 -22 -4.5t-18 -15.5l-63 -98q-10 -17 -10 -30
q0 -16 10.5 -25t22.5 -9q15 0 30 10z" />
    <glyph glyph-name="Icircumflex" unicode="&#xce;" horiz-adv-x="267" 
d="M46 663v-575q0 -37 25.5 -62.5t61.5 -25.5q37 0 62.5 25.5t25.5 62.5v575q0 36 -25.5 61.5t-62.5 25.5q-36 0 -61.5 -25.5t-25.5 -61.5zM161 970q-13 13 -28 13t-28 -13l-82 -82q-10 -10 -10 -27q0 -15 11 -26t26 -11q13 0 26 11l57 56l56 -56q11 -11 26 -11t26.5 11
t11.5 26q0 16 -11 27z" />
    <glyph glyph-name="Idieresis" unicode="&#xcf;" horiz-adv-x="267" 
d="M46 663v-575q0 -37 25.5 -62.5t61.5 -25.5q37 0 62.5 25.5t25.5 62.5v575q0 36 -25.5 61.5t-62.5 25.5q-36 0 -61.5 -25.5t-25.5 -61.5zM145 874q0 -20 14.5 -34.5t34.5 -14.5t34.5 14.5t14.5 34.5t-14.5 34.5t-34.5 14.5t-34.5 -14.5t-14.5 -34.5zM23 874
q0 -20 14.5 -34.5t34.5 -14.5t34.5 14.5t14.5 34.5t-14.5 34.5t-34.5 14.5t-34.5 -14.5t-14.5 -34.5z" />
    <glyph glyph-name="Eth" unicode="&#xd0;" horiz-adv-x="831" 
d="M136 298v-211q0 -36 25.5 -61.5t61.5 -25.5h235q75 0 140 30.5t112 82t74 119.5t27 143t-27 143t-74 119.5t-112 82t-140 30.5h-235q-36 0 -61.5 -25.5t-25.5 -61.5v-210h-39q-16 0 -30 -6t-24.5 -16.5t-16.5 -25t-6 -30.5t8.5 -30t22 -24.5t30 -16.5t32.5 -6h23z
M311 453v135h125q43 0 79.5 -17.5t63.5 -47t42 -68t15 -81.5t-15.5 -81t-42.5 -67t-63.5 -46t-78.5 -17h-125v135h39q16 0 30.5 6t25 16.5t16.5 24.5t6 30q0 32 -23 55t-55 23h-39z" />
    <glyph glyph-name="Ntilde" unicode="&#xd1;" horiz-adv-x="737" 
d="M534 35q11 -14 28.5 -24.5t40.5 -10.5q37 0 62.5 25.5t25.5 62.5v575q0 36 -25.5 61.5t-62.5 25.5q-36 0 -61.5 -25.5t-25.5 -61.5v-349l-315 404q-11 13 -28.5 22.5t-39.5 9.5q-36 0 -61.5 -25.5t-25.5 -61.5v-575q0 -37 25.5 -62.5t61.5 -25.5q37 0 62.5 25.5
t25.5 62.5v350zM301 939q15 0 26 -11t11 -27q0 -41 25.5 -63.5t60.5 -22.5q18 0 34 7t28 18.5t18.5 27t6.5 33.5q0 11 -7 18t-18 7q-10 0 -17 -7t-7 -18q0 -15 -11 -26t-27 -11q-15 0 -26 11t-11 26q0 42 -25.5 64.5t-60.5 22.5q-36 0 -61 -25t-25 -62q0 -10 6.5 -17
t17.5 -7t18 7t7 17q0 16 11 27t26 11z" />
    <glyph glyph-name="Ograve" unicode="&#xd2;" horiz-adv-x="815" 
d="M407 -13q80 0 151 30.5t123.5 83t83 123.5t30.5 151t-30.5 151t-83 123.5t-123.5 83t-151 30.5t-150.5 -30.5t-123 -83t-83 -123.5t-30.5 -151t30.5 -151t83 -123.5t123 -83t150.5 -30.5zM195 375q0 44 16.5 82.5t45.5 67.5t67.5 46t82.5 17t83 -17t68 -46t45.5 -67.5
t16.5 -82.5t-16.5 -82.5t-45.5 -67.5t-68 -45.5t-83 -16.5t-82.5 16.5t-67.5 45.5t-45.5 67.5t-16.5 82.5zM384 829q15 -10 30 -10q12 0 22.5 9t10.5 25q0 13 -10 30l-63 98q-7 11 -18 15.5t-22 4.5q-31 0 -49.5 -21.5t-18.5 -46.5q0 -12 4.5 -23t15.5 -18z" />
    <glyph glyph-name="Oacute" unicode="&#xd3;" horiz-adv-x="815" 
d="M407 -13q80 0 151 30.5t123.5 83t83 123.5t30.5 151t-30.5 151t-83 123.5t-123.5 83t-151 30.5t-150.5 -30.5t-123 -83t-83 -123.5t-30.5 -151t30.5 -151t83 -123.5t123 -83t150.5 -30.5zM195 375q0 44 16.5 82.5t45.5 67.5t67.5 46t82.5 17t83 -17t68 -46t45.5 -67.5
t16.5 -82.5t-16.5 -82.5t-45.5 -67.5t-68 -45.5t-83 -16.5t-82.5 16.5t-67.5 45.5t-45.5 67.5t-16.5 82.5zM416 829l98 63q11 7 15.5 18t4.5 23q0 25 -18.5 46.5t-49.5 21.5q-11 0 -22 -4.5t-18 -15.5l-63 -98q-10 -17 -10 -30q0 -16 10.5 -25t22.5 -9q15 0 30 10z" />
    <glyph glyph-name="Ocircumflex" unicode="&#xd4;" horiz-adv-x="815" 
d="M407 -13q80 0 151 30.5t123.5 83t83 123.5t30.5 151t-30.5 151t-83 123.5t-123.5 83t-151 30.5t-150.5 -30.5t-123 -83t-83 -123.5t-30.5 -151t30.5 -151t83 -123.5t123 -83t150.5 -30.5zM195 375q0 44 16.5 82.5t45.5 67.5t67.5 46t82.5 17t83 -17t68 -46t45.5 -67.5
t16.5 -82.5t-16.5 -82.5t-45.5 -67.5t-68 -45.5t-83 -16.5t-82.5 16.5t-67.5 45.5t-45.5 67.5t-16.5 82.5zM434 970q-13 13 -28 13t-28 -13l-82 -82q-10 -10 -10 -27q0 -15 11 -26t26 -11q13 0 26 11l57 56l56 -56q11 -11 26 -11t26.5 11t11.5 26q0 16 -11 27z" />
    <glyph glyph-name="Otilde" unicode="&#xd5;" horiz-adv-x="815" 
d="M407 -13q80 0 151 30.5t123.5 83t83 123.5t30.5 151t-30.5 151t-83 123.5t-123.5 83t-151 30.5t-150.5 -30.5t-123 -83t-83 -123.5t-30.5 -151t30.5 -151t83 -123.5t123 -83t150.5 -30.5zM195 375q0 44 16.5 82.5t45.5 67.5t67.5 46t82.5 17t83 -17t68 -46t45.5 -67.5
t16.5 -82.5t-16.5 -82.5t-45.5 -67.5t-68 -45.5t-83 -16.5t-82.5 16.5t-67.5 45.5t-45.5 67.5t-16.5 82.5zM340 939q15 0 26 -11t11 -27q0 -41 25.5 -63.5t60.5 -22.5q18 0 34 7t28 18.5t18.5 27t6.5 33.5q0 11 -7 18t-18 7q-10 0 -17 -7t-7 -18q0 -15 -11 -26t-27 -11
q-15 0 -26 11t-11 26q0 42 -25.5 64.5t-60.5 22.5q-36 0 -61 -25t-25 -62q0 -10 6.5 -17t17.5 -7t18 7t7 17q0 16 11 27t26 11z" />
    <glyph glyph-name="Odieresis" unicode="&#xd6;" horiz-adv-x="815" 
d="M407 -13q80 0 151 30.5t123.5 83t83 123.5t30.5 151t-30.5 151t-83 123.5t-123.5 83t-151 30.5t-150.5 -30.5t-123 -83t-83 -123.5t-30.5 -151t30.5 -151t83 -123.5t123 -83t150.5 -30.5zM195 375q0 44 16.5 82.5t45.5 67.5t67.5 46t82.5 17t83 -17t68 -46t45.5 -67.5
t16.5 -82.5t-16.5 -82.5t-45.5 -67.5t-68 -45.5t-83 -16.5t-82.5 16.5t-67.5 45.5t-45.5 67.5t-16.5 82.5zM419 874q0 -20 14.5 -34.5t34.5 -14.5t34.5 14.5t14.5 34.5t-14.5 34.5t-34.5 14.5t-34.5 -14.5t-14.5 -34.5zM296 874q0 -20 14.5 -34.5t34.5 -14.5t34.5 14.5
t14.5 34.5t-14.5 34.5t-34.5 14.5t-34.5 -14.5t-14.5 -34.5z" />
    <glyph glyph-name="multiply" unicode="&#xd7;" horiz-adv-x="320" 
d="M238 375l46 46q16 16 16 39q0 25 -16.5 40t-38.5 15q-23 0 -39 -16l-46 -46l-46 46q-16 16 -39 16q-15 0 -25.5 -6t-17 -14t-9.5 -18t-3 -17q0 -23 16 -39l46 -46l-46 -46q-16 -16 -16 -39q0 -15 5.5 -25.5t14 -17t18 -9.5t17.5 -3q23 0 39 16l46 46l46 -46
q16 -16 39 -16q26 0 40.5 18t14.5 37q0 21 -16 39z" />
    <glyph glyph-name="Oslash" unicode="&#xd8;" horiz-adv-x="815" 
d="M211 294q-8 18 -12 37.5t-4 43.5q0 44 16.5 82.5t45.5 67.5t67.5 46t82.5 17q25 0 44.5 -4.5t37.5 -12.5zM326 179l278 277q7 -17 11.5 -37t4.5 -44q0 -44 -16.5 -82.5t-45.5 -67t-67.5 -45.5t-83.5 -17q-24 0 -43 4t-38 12zM83 165l-27 -26q-12 -12 -18 -27.5t-6 -30.5
q0 -34 23.5 -57.5t57.5 -23.5t58 24l27 26q42 -27 93.5 -44.5t115.5 -18.5q80 0 151 31t123.5 83.5t83 123t30.5 150.5q0 65 -19 118.5t-44 91.5l27 26q12 12 17.5 27t5.5 31q0 34 -23.5 57.5t-57.5 23.5q-31 0 -57 -24l-27 -26q-40 26 -92.5 44.5t-117.5 18.5
q-80 0 -150.5 -30.5t-123 -83.5t-83 -123.5t-30.5 -150.5q0 -64 18.5 -117t44.5 -93z" />
    <glyph glyph-name="Ugrave" unicode="&#xd9;" horiz-adv-x="704" 
d="M483 294q0 -27 -10.5 -51t-28 -41.5t-41.5 -28t-51 -10.5t-51 10.5t-41.5 28t-28 41.5t-10.5 51v369q0 36 -25.5 61.5t-62.5 25.5q-36 0 -61.5 -25.5t-25.5 -61.5v-369q0 -63 24 -119t65.5 -98t97.5 -66t119 -24t119 24t97.5 66t65.5 98t24 119v369q0 36 -25.5 61.5
t-61.5 25.5t-62 -25.5t-26 -61.5v-369zM330 829q15 -10 30 -10q12 0 22.5 9t10.5 25q0 13 -10 30l-63 98q-7 11 -18 15.5t-22 4.5q-31 0 -49.5 -21.5t-18.5 -46.5q0 -12 4.5 -23t15.5 -18z" />
    <glyph glyph-name="Uacute" unicode="&#xda;" horiz-adv-x="704" 
d="M483 294q0 -27 -10.5 -51t-28 -41.5t-41.5 -28t-51 -10.5t-51 10.5t-41.5 28t-28 41.5t-10.5 51v369q0 36 -25.5 61.5t-62.5 25.5q-36 0 -61.5 -25.5t-25.5 -61.5v-369q0 -63 24 -119t65.5 -98t97.5 -66t119 -24t119 24t97.5 66t65.5 98t24 119v369q0 36 -25.5 61.5
t-61.5 25.5t-62 -25.5t-26 -61.5v-369zM368 829l98 63q11 7 15.5 18t4.5 23q0 25 -18.5 46.5t-49.5 21.5q-11 0 -22 -4.5t-18 -15.5l-63 -98q-10 -17 -10 -30q0 -16 10.5 -25t22.5 -9q15 0 30 10z" />
    <glyph glyph-name="Ucircumflex" unicode="&#xdb;" horiz-adv-x="704" 
d="M483 294q0 -27 -10.5 -51t-28 -41.5t-41.5 -28t-51 -10.5t-51 10.5t-41.5 28t-28 41.5t-10.5 51v369q0 36 -25.5 61.5t-62.5 25.5q-36 0 -61.5 -25.5t-25.5 -61.5v-369q0 -63 24 -119t65.5 -98t97.5 -66t119 -24t119 24t97.5 66t65.5 98t24 119v369q0 36 -25.5 61.5
t-61.5 25.5t-62 -25.5t-26 -61.5v-369zM378 970q-13 13 -28 13t-28 -13l-82 -82q-10 -10 -10 -27q0 -15 11 -26t26 -11q13 0 26 11l57 56l56 -56q11 -11 26 -11t26.5 11t11.5 26q0 16 -11 27z" />
    <glyph glyph-name="Udieresis" unicode="&#xdc;" horiz-adv-x="704" 
d="M483 294q0 -27 -10.5 -51t-28 -41.5t-41.5 -28t-51 -10.5t-51 10.5t-41.5 28t-28 41.5t-10.5 51v369q0 36 -25.5 61.5t-62.5 25.5q-36 0 -61.5 -25.5t-25.5 -61.5v-369q0 -63 24 -119t65.5 -98t97.5 -66t119 -24t119 24t97.5 66t65.5 98t24 119v369q0 36 -25.5 61.5
t-61.5 25.5t-62 -25.5t-26 -61.5v-369zM365 874q0 -20 14.5 -34.5t34.5 -14.5t34.5 14.5t14.5 34.5t-14.5 34.5t-34.5 14.5t-34.5 -14.5t-14.5 -34.5zM242 874q0 -20 14.5 -34.5t34.5 -14.5t34.5 14.5t14.5 34.5t-14.5 34.5t-34.5 14.5t-34.5 -14.5t-14.5 -34.5z" />
    <glyph glyph-name="Yacute" unicode="&#xdd;" horiz-adv-x="648" 
d="M621 613q15 22 15 49q0 21 -8 37.5t-20.5 28t-28 17t-30.5 5.5q-21 0 -40 -9.5t-32 -28.5l-153 -220l-153 220q-13 19 -32 28.5t-40 9.5q-15 0 -30.5 -5.5t-28 -17t-20.5 -28t-8 -37.5q0 -27 15 -49l210 -303v-222q0 -37 25.5 -62.5t61.5 -25.5t62 25.5t26 62.5v222z
M355 829l98 63q11 7 15.5 18t4.5 23q0 25 -18.5 46.5t-49.5 21.5q-11 0 -22 -4.5t-18 -15.5l-63 -98q-10 -17 -10 -30q0 -16 10.5 -25t22.5 -9q15 0 30 10z" />
    <glyph glyph-name="Thorn" unicode="&#xde;" horiz-adv-x="618" 
d="M317 481q22 0 41.5 -8.5t33.5 -23t22.5 -34t8.5 -41.5t-8.5 -41t-22.5 -33.5t-33.5 -23t-41.5 -8.5h-96v213h96zM221 643v19q0 37 -25.5 62.5t-62.5 25.5q-36 0 -61.5 -25.5t-25.5 -62.5v-574q0 -37 25.5 -62.5t61.5 -25.5q37 0 62.5 25.5t25.5 62.5v18h109q55 0 104 21
t85.5 57.5t57.5 85t21 104.5t-21 105t-57.5 85.5t-85.5 57.5t-104 21h-109z" />
    <glyph glyph-name="germandbls" unicode="&#xdf;" horiz-adv-x="776" 
d="M250 756q-41 0 -71 -14t-50 -38.5t-29.5 -58t-9.5 -72.5v-25h-1q-29 0 -49 -20t-20 -49t20 -49t49 -20h1v-333q0 -32 22.5 -54.5t54.5 -22.5q16 0 30.5 6t25 16.5t16.5 24.5t6 30v496q0 14 6.5 23.5t36.5 9.5q48 0 78 -13.5t30 -32.5q0 -25 -17 -39q-26 -21 -39 -54
t-13 -72q0 -47 19.5 -76t48.5 -47.5t63.5 -28.5l63.5 -19t48.5 -20.5t19.5 -30.5q0 -20 -19 -28.5t-39 -8.5q-23 0 -42.5 13.5t-38 29.5t-38.5 29.5t-42 13.5q-35 0 -55.5 -19.5t-20.5 -59.5q0 -33 23.5 -60t58.5 -47t75 -31t73 -11q46 0 86.5 12t71.5 35.5t49 59t18 83.5
q0 50 -19.5 80.5t-48.5 48.5t-63 27.5l-63 18t-48.5 20t-19.5 34.5q0 10 9 18l45 38t26.5 29.5t12.5 33t3 48.5t-10.5 61t-45 56.5t-100.5 42t-178 16.5z" />
    <glyph glyph-name="agrave" unicode="&#xe0;" horiz-adv-x="626" 
d="M304 409q27 0 50 -10t40.5 -27.5t27.5 -41t10 -50.5t-10 -50.5t-27.5 -41t-40.5 -27.5t-50 -10t-50.5 10t-41 27.5t-27.5 41t-10 50.5t10 50.5t27.5 41t41 27.5t50.5 10zM587 483q0 32 -22.5 54.5t-54.5 22.5q-27 0 -48 -18t-26 -39q-3 2 -14 11t-30.5 19.5t-47.5 18.5
t-65 8q-47 0 -93.5 -21t-83 -58t-59.5 -88.5t-23 -112.5t23 -112t59.5 -88.5t83 -58.5t93.5 -21q37 0 65 8t47.5 18.5t30.5 19.5t14 11q5 -21 26 -39t48 -18q32 0 54.5 23t22.5 55v405zM266 629q11 -8 24 -8q9 0 17.5 7.5t8.5 19.5q0 11 -8 24l-50 79q-12 16 -32 16
q-25 0 -40 -17.5t-15 -37.5q0 -9 4 -18t12 -14z" />
    <glyph glyph-name="aacute" unicode="&#xe1;" horiz-adv-x="626" 
d="M304 409q27 0 50 -10t40.5 -27.5t27.5 -41t10 -50.5t-10 -50.5t-27.5 -41t-40.5 -27.5t-50 -10t-50.5 10t-41 27.5t-27.5 41t-10 50.5t10 50.5t27.5 41t41 27.5t50.5 10zM587 483q0 32 -22.5 54.5t-54.5 22.5q-27 0 -48 -18t-26 -39q-3 2 -14 11t-30.5 19.5t-47.5 18.5
t-65 8q-47 0 -93.5 -21t-83 -58t-59.5 -88.5t-23 -112.5t23 -112t59.5 -88.5t83 -58.5t93.5 -21q37 0 65 8t47.5 18.5t30.5 19.5t14 11q5 -21 26 -39t48 -18q32 0 54.5 23t22.5 55v405zM303 629l79 51q8 5 12 14t4 18q0 20 -15 37.5t-40 17.5q-20 0 -32 -16l-50 -79
q-8 -13 -8 -24q0 -12 8.5 -19.5t17.5 -7.5q13 0 24 8z" />
    <glyph glyph-name="acircumflex" unicode="&#xe2;" horiz-adv-x="626" 
d="M304 409q27 0 50 -10t40.5 -27.5t27.5 -41t10 -50.5t-10 -50.5t-27.5 -41t-40.5 -27.5t-50 -10t-50.5 10t-41 27.5t-27.5 41t-10 50.5t10 50.5t27.5 41t41 27.5t50.5 10zM587 483q0 32 -22.5 54.5t-54.5 22.5q-27 0 -48 -18t-26 -39q-3 2 -14 11t-30.5 19.5t-47.5 18.5
t-65 8q-47 0 -93.5 -21t-83 -58t-59.5 -88.5t-23 -112.5t23 -112t59.5 -88.5t83 -58.5t93.5 -21q37 0 65 8t47.5 18.5t30.5 19.5t14 11q5 -21 26 -39t48 -18q32 0 54.5 23t22.5 55v405zM317 765q-13 13 -28 13t-28 -13l-82 -82q-10 -10 -10 -27q0 -15 11 -26t26 -11
q13 0 26 11l57 56l56 -56q11 -11 26 -11t26.5 11t11.5 26q0 16 -11 27z" />
    <glyph glyph-name="atilde" unicode="&#xe3;" horiz-adv-x="626" 
d="M304 409q27 0 50 -10t40.5 -27.5t27.5 -41t10 -50.5t-10 -50.5t-27.5 -41t-40.5 -27.5t-50 -10t-50.5 10t-41 27.5t-27.5 41t-10 50.5t10 50.5t27.5 41t41 27.5t50.5 10zM587 483q0 32 -22.5 54.5t-54.5 22.5q-27 0 -48 -18t-26 -39q-3 2 -14 11t-30.5 19.5t-47.5 18.5
t-65 8q-47 0 -93.5 -21t-83 -58t-59.5 -88.5t-23 -112.5t23 -112t59.5 -88.5t83 -58.5t93.5 -21q37 0 65 8t47.5 18.5t30.5 19.5t14 11q5 -21 26 -39t48 -18q32 0 54.5 23t22.5 55v405zM242 730q15 0 26 -11t11 -27q0 -41 25.5 -63.5t60.5 -22.5q18 0 34 7t28 18.5t18.5 27
t6.5 33.5q0 11 -7 18t-18 7q-10 0 -17 -7t-7 -18q0 -15 -11 -26t-27 -11q-15 0 -26 11t-11 26q0 42 -25.5 64.5t-60.5 22.5q-36 0 -61 -25t-25 -62q0 -10 6.5 -17t17.5 -7t18 7t7 17q0 16 11 27t26 11z" />
    <glyph glyph-name="adieresis" unicode="&#xe4;" horiz-adv-x="626" 
d="M304 409q27 0 50 -10t40.5 -27.5t27.5 -41t10 -50.5t-10 -50.5t-27.5 -41t-40.5 -27.5t-50 -10t-50.5 10t-41 27.5t-27.5 41t-10 50.5t10 50.5t27.5 41t41 27.5t50.5 10zM587 483q0 32 -22.5 54.5t-54.5 22.5q-27 0 -48 -18t-26 -39q-3 2 -14 11t-30.5 19.5t-47.5 18.5
t-65 8q-47 0 -93.5 -21t-83 -58t-59.5 -88.5t-23 -112.5t23 -112t59.5 -88.5t83 -58.5t93.5 -21q37 0 65 8t47.5 18.5t30.5 19.5t14 11q5 -21 26 -39t48 -18q32 0 54.5 23t22.5 55v405zM351 718q-20 0 -34.5 -14.5t-14.5 -34.5t14.5 -34.5t34.5 -14.5t34.5 14.5t14.5 34.5
t-14.5 34.5t-34.5 14.5zM228 718q-20 0 -34.5 -14.5t-14.5 -34.5t14.5 -34.5t34.5 -14.5t34.5 14.5t14.5 34.5t-14.5 34.5t-34.5 14.5z" />
    <glyph glyph-name="aring" unicode="&#xe5;" horiz-adv-x="626" 
d="M304 409q27 0 50 -10t40.5 -27.5t27.5 -41t10 -50.5t-10 -50.5t-27.5 -41t-40.5 -27.5t-50 -10t-50.5 10t-41 27.5t-27.5 41t-10 50.5t10 50.5t27.5 41t41 27.5t50.5 10zM587 483q0 32 -22.5 54.5t-54.5 22.5q-27 0 -48 -18t-26 -39q-3 2 -14 11t-30.5 19.5t-47.5 18.5
t-65 8q-47 0 -93.5 -21t-83 -58t-59.5 -88.5t-23 -112.5t23 -112t59.5 -88.5t83 -58.5t93.5 -21q37 0 65 8t47.5 18.5t30.5 19.5t14 11q5 -21 26 -39t48 -18q32 0 54.5 23t22.5 55v405zM298 816q-41 0 -69.5 -28.5t-28.5 -69.5t28.5 -69.5t69.5 -28.5t69.5 28.5t28.5 69.5
t-28.5 69.5t-69.5 28.5zM298 767q20 0 34.5 -14.5t14.5 -34.5t-14.5 -34.5t-34.5 -14.5t-34.5 14.5t-14.5 34.5t14.5 34.5t34.5 14.5z" />
    <glyph glyph-name="ae" unicode="&#xe6;" horiz-adv-x="979" 
d="M304 409q27 0 50 -10t40.5 -27.5t27.5 -41t10 -50.5t-10 -50.5t-27.5 -41t-40.5 -27.5t-50 -10t-50.5 10t-41 27.5t-27.5 41t-10 50.5t10 50.5t27.5 41t41 27.5t50.5 10zM591 314q0 15 9.5 33t26.5 33t40.5 25.5t51.5 10.5t49.5 -9t21.5 -20q0 -8 -15 -14l-162 -68
q-6 -2 -9 -2q-13 0 -13 11zM719 -6q60 0 110 20.5t82 50.5q13 11 18 24.5t5 26.5q0 16 -6.5 31t-17.5 26.5t-25.5 18.5t-29.5 7q-18 0 -30 -8.5t-25 -19t-31.5 -19t-49.5 -8.5q-11 0 -25 3t-26 7.5t-20 10.5t-8 12t13 12l262 109q23 9 33.5 27.5t10.5 43.5q0 45 -20.5 81
t-54 62t-77 40t-88.5 14q-42 0 -81 -10.5t-66 -27.5q-9 13 -25.5 22.5t-36.5 9.5q-27 0 -48 -18t-26 -39q-3 2 -14 11t-30.5 19.5t-47.5 18.5t-65 8q-47 0 -93.5 -21t-83 -58t-59.5 -88.5t-23 -112.5t23 -112t59.5 -88.5t83 -58.5t93.5 -21q37 0 65 8t47.5 18.5t30.5 19.5
t14 11q5 -21 26 -39t48 -18q20 0 36.5 9.5t25.5 22.5q31 -17 66.5 -27.5t80.5 -10.5z" />
    <glyph glyph-name="ccedilla" unicode="&#xe7;" horiz-adv-x="552" 
d="M344 -4q38 5 80 22.5t74 46.5q18 17 26 33.5t8 32.5q0 30 -23.5 51t-54.5 21q-22 0 -36.5 -9t-28.5 -20.5t-33 -20.5t-50 -9q-28 0 -53 10.5t-43.5 29t-29 43.5t-10.5 53t10.5 53t29 43.5t43.5 29t53 10.5q30 0 49 -9t34.5 -20t30 -20t34.5 -9q31 0 54.5 20.5t23.5 50.5
q0 16 -8 32.5t-26 33.5q-32 29 -81 50t-111 21q-59 0 -111 -21t-91 -59t-61.5 -90.5t-22.5 -115.5t21.5 -113t56.5 -86t79.5 -57.5t91.5 -27.5v-39q0 -16 -11 -27t-27 -11h-56q-16 0 -27 -11t-11 -27t11 -26.5t27 -10.5h56q23 0 43.5 9t36 24.5t24.5 36t9 43.5v39z" />
    <glyph glyph-name="egrave" unicode="&#xe8;" horiz-adv-x="566" 
d="M241 189l261 109q23 9 33.5 27.5t10.5 43.5q0 45 -20.5 81t-54 62t-77 40t-88.5 14q-59 0 -111 -21t-91 -59t-61.5 -90.5t-22.5 -115.5t22.5 -115.5t61.5 -90.5t91 -59t111 -21q60 0 110 20.5t82 50.5q23 23 23 52q0 16 -6.5 30.5t-17.5 25.5t-25.5 18t-29.5 7
q-20 0 -31.5 -8.5l-24 -18.5t-30.5 -18.5t-50 -8.5q-11 0 -25 3t-26 7.5t-20 10t-8 11.5q0 7 14 13zM179 314q0 15 9.5 33t26.5 33t40 25.5t51 10.5q29 0 50 -9t21 -20q0 -8 -14 -14l-162 -68q-6 -2 -10 -2q-5 0 -8.5 2.5t-3.5 8.5zM291 629q11 -8 24 -8q9 0 17.5 7.5
t8.5 19.5q0 11 -8 24l-50 79q-12 16 -32 16q-25 0 -40 -17.5t-15 -37.5q0 -9 4 -18t12 -14z" />
    <glyph glyph-name="eacute" unicode="&#xe9;" horiz-adv-x="566" 
d="M241 189l261 109q23 9 33.5 27.5t10.5 43.5q0 45 -20.5 81t-54 62t-77 40t-88.5 14q-59 0 -111 -21t-91 -59t-61.5 -90.5t-22.5 -115.5t22.5 -115.5t61.5 -90.5t91 -59t111 -21q60 0 110 20.5t82 50.5q23 23 23 52q0 16 -6.5 30.5t-17.5 25.5t-25.5 18t-29.5 7
q-20 0 -31.5 -8.5l-24 -18.5t-30.5 -18.5t-50 -8.5q-11 0 -25 3t-26 7.5t-20 10t-8 11.5q0 7 14 13zM179 314q0 15 9.5 33t26.5 33t40 25.5t51 10.5q29 0 50 -9t21 -20q0 -8 -14 -14l-162 -68q-6 -2 -10 -2q-5 0 -8.5 2.5t-3.5 8.5zM315 629l79 51q8 5 12 14t4 18
q0 20 -15 37.5t-40 17.5q-20 0 -32 -16l-50 -79q-8 -13 -8 -24q0 -12 8.5 -19.5t17.5 -7.5q13 0 24 8z" />
    <glyph glyph-name="ecircumflex" unicode="&#xea;" horiz-adv-x="566" 
d="M241 189l261 109q23 9 33.5 27.5t10.5 43.5q0 45 -20.5 81t-54 62t-77 40t-88.5 14q-59 0 -111 -21t-91 -59t-61.5 -90.5t-22.5 -115.5t22.5 -115.5t61.5 -90.5t91 -59t111 -21q60 0 110 20.5t82 50.5q23 23 23 52q0 16 -6.5 30.5t-17.5 25.5t-25.5 18t-29.5 7
q-20 0 -31.5 -8.5l-24 -18.5t-30.5 -18.5t-50 -8.5q-11 0 -25 3t-26 7.5t-20 10t-8 11.5q0 7 14 13zM179 314q0 15 9.5 33t26.5 33t40 25.5t51 10.5q29 0 50 -9t21 -20q0 -8 -14 -14l-162 -68q-6 -2 -10 -2q-5 0 -8.5 2.5t-3.5 8.5zM332 765q-13 13 -28 13t-28 -13l-82 -82
q-10 -10 -10 -27q0 -15 11 -26t26 -11q13 0 26 11l57 56l56 -56q11 -11 26 -11t26.5 11t11.5 26q0 16 -11 27z" />
    <glyph glyph-name="edieresis" unicode="&#xeb;" horiz-adv-x="566" 
d="M241 189l261 109q23 9 33.5 27.5t10.5 43.5q0 45 -20.5 81t-54 62t-77 40t-88.5 14q-59 0 -111 -21t-91 -59t-61.5 -90.5t-22.5 -115.5t22.5 -115.5t61.5 -90.5t91 -59t111 -21q60 0 110 20.5t82 50.5q23 23 23 52q0 16 -6.5 30.5t-17.5 25.5t-25.5 18t-29.5 7
q-20 0 -31.5 -8.5l-24 -18.5t-30.5 -18.5t-50 -8.5q-11 0 -25 3t-26 7.5t-20 10t-8 11.5q0 7 14 13zM179 314q0 15 9.5 33t26.5 33t40 25.5t51 10.5q29 0 50 -9t21 -20q0 -8 -14 -14l-162 -68q-6 -2 -10 -2q-5 0 -8.5 2.5t-3.5 8.5zM365 718q-20 0 -34.5 -14.5t-14.5 -34.5
t14.5 -34.5t34.5 -14.5t34.5 14.5t14.5 34.5t-14.5 34.5t-34.5 14.5zM242 718q-20 0 -34.5 -14.5t-14.5 -34.5t14.5 -34.5t34.5 -14.5t34.5 14.5t14.5 34.5t-14.5 34.5t-34.5 14.5z" />
    <glyph glyph-name="igrave" unicode="&#xec;" horiz-adv-x="233" 
d="M194 483q0 16 -6 30t-16.5 24.5t-25 16.5t-30.5 6q-32 0 -54.5 -22.5t-22.5 -54.5v-405q0 -16 6 -30.5t16.5 -25t24.5 -16.5t30 -6q32 0 55 23t23 55v405zM92 629q11 -8 24 -8q9 0 17.5 7.5t8.5 19.5q0 11 -8 24l-50 79q-12 16 -32 16q-25 0 -40 -17.5t-15 -37.5
q0 -9 4 -18t12 -14z" />
    <glyph glyph-name="iacute" unicode="&#xed;" horiz-adv-x="233" 
d="M194 483q0 16 -6 30t-16.5 24.5t-25 16.5t-30.5 6q-32 0 -54.5 -22.5t-22.5 -54.5v-405q0 -16 6 -30.5t16.5 -25t24.5 -16.5t30 -6q32 0 55 23t23 55v405zM140 629l79 51q8 5 12 14t4 18q0 20 -15 37.5t-40 17.5q-20 0 -32 -16l-50 -79q-8 -13 -8 -24q0 -12 8.5 -19.5
t17.5 -7.5q13 0 24 8z" />
    <glyph glyph-name="icircumflex" unicode="&#xee;" horiz-adv-x="233" 
d="M194 483q0 16 -6 30t-16.5 24.5t-25 16.5t-30.5 6q-32 0 -54.5 -22.5t-22.5 -54.5v-405q0 -16 6 -30.5t16.5 -25t24.5 -16.5t30 -6q32 0 55 23t23 55v405zM144 765q-13 13 -28 13t-28 -13l-82 -82q-10 -10 -10 -27q0 -15 11 -26t26 -11q13 0 26 11l57 56l56 -56
q11 -11 26 -11t26.5 11t11.5 26q0 16 -11 27z" />
    <glyph glyph-name="idieresis" unicode="&#xef;" horiz-adv-x="233" 
d="M194 483q0 16 -6 30t-16.5 24.5t-25 16.5t-30.5 6q-32 0 -54.5 -22.5t-22.5 -54.5v-405q0 -16 6 -30.5t16.5 -25t24.5 -16.5t30 -6q32 0 55 23t23 55v405zM177 718q-20 0 -34.5 -14.5t-14.5 -34.5t14.5 -34.5t34.5 -14.5t34.5 14.5t14.5 34.5t-14.5 34.5t-34.5 14.5z
M55 718q-20 0 -34.5 -14.5t-14.5 -34.5t14.5 -34.5t34.5 -14.5t34.5 14.5t14.5 34.5t-14.5 34.5t-34.5 14.5z" />
    <glyph glyph-name="eth" unicode="&#xf0;" horiz-adv-x="612" 
d="M422 543q-19 8 -46.5 15.5t-69.5 7.5q-59 0 -111 -21t-91 -59t-61.5 -90.5t-22.5 -115.5t22.5 -115.5t61.5 -90.5t91 -59t111 -21t111 21t91 59t61.5 90.5t22.5 115.5q0 81 -9.5 144t-31 111.5t-57 86t-86.5 68.5l48 48h-62l-28 -28q-53 23 -112 34t-130 12
q-18 0 -30.5 -12.5t-12.5 -30.5t12.5 -30.5t30.5 -12.5q44 0 90.5 -6t83.5 -23l-44 -44h61l25 25q23 -12 45.5 -31t36.5 -48zM170 280q0 28 10.5 53t29 43.5t43.5 29t53 10.5t53 -10.5t43.5 -29t29 -43.5t10.5 -53t-10.5 -53t-29 -43.5t-43.5 -29t-53 -10.5t-53 10.5
t-43.5 29t-29 43.5t-10.5 53z" />
    <glyph glyph-name="ntilde" unicode="&#xf1;" horiz-adv-x="560" 
d="M280 566q-50 0 -94 -19t-76.5 -51.5t-51.5 -76.5t-19 -94v-247q0 -32 22.5 -55t54.5 -23t55 23t23 55v255q0 34 25.5 56t60.5 22q34 0 60 -22t26 -56v-255q0 -32 23 -55t55 -23q16 0 30 6t24.5 16.5t16.5 25t6 30.5v247q0 50 -19 94t-51.5 76.5t-76.5 51.5t-94 19z
M217 730q15 0 26 -11t11 -27q0 -41 25.5 -63.5t60.5 -22.5q18 0 34 7t28 18.5t18.5 27t6.5 33.5q0 11 -7 18t-18 7q-10 0 -17 -7t-7 -18q0 -15 -11 -26t-27 -11q-15 0 -26 11t-11 26q0 42 -25.5 64.5t-60.5 22.5q-36 0 -61 -25t-25 -62q0 -10 6.5 -17t17.5 -7t18 7t7 17
q0 16 11 27t26 11z" />
    <glyph glyph-name="ograve" unicode="&#xf2;" horiz-adv-x="612" 
d="M306 -6q59 0 111 21t91 59t61.5 90.5t22.5 115.5t-22.5 115.5t-61.5 90.5t-91 59t-111 21t-111 -21t-91 -59t-61.5 -90.5t-22.5 -115.5t22.5 -115.5t61.5 -90.5t91 -59t111 -21zM170 280q0 28 10.5 53t29 43.5t43.5 29t53 10.5t53 -10.5t43.5 -29t29 -43.5t10.5 -53
t-10.5 -53t-29 -43.5t-43.5 -29t-53 -10.5t-53 10.5t-43.5 29t-29 43.5t-10.5 53zM282 629q11 -8 24 -8q9 0 17.5 7.5t8.5 19.5q0 11 -8 24l-50 79q-12 16 -32 16q-25 0 -40 -17.5t-15 -37.5q0 -9 4 -18t12 -14z" />
    <glyph glyph-name="oacute" unicode="&#xf3;" horiz-adv-x="612" 
d="M306 -6q59 0 111 21t91 59t61.5 90.5t22.5 115.5t-22.5 115.5t-61.5 90.5t-91 59t-111 21t-111 -21t-91 -59t-61.5 -90.5t-22.5 -115.5t22.5 -115.5t61.5 -90.5t91 -59t111 -21zM170 280q0 28 10.5 53t29 43.5t43.5 29t53 10.5t53 -10.5t43.5 -29t29 -43.5t10.5 -53
t-10.5 -53t-29 -43.5t-43.5 -29t-53 -10.5t-53 10.5t-43.5 29t-29 43.5t-10.5 53zM320 629l79 51q8 5 12 14t4 18q0 20 -15 37.5t-40 17.5q-20 0 -32 -16l-50 -79q-8 -13 -8 -24q0 -12 8.5 -19.5t17.5 -7.5q13 0 24 8z" />
    <glyph glyph-name="ocircumflex" unicode="&#xf4;" horiz-adv-x="612" 
d="M306 -6q59 0 111 21t91 59t61.5 90.5t22.5 115.5t-22.5 115.5t-61.5 90.5t-91 59t-111 21t-111 -21t-91 -59t-61.5 -90.5t-22.5 -115.5t22.5 -115.5t61.5 -90.5t91 -59t111 -21zM170 280q0 28 10.5 53t29 43.5t43.5 29t53 10.5t53 -10.5t43.5 -29t29 -43.5t10.5 -53
t-10.5 -53t-29 -43.5t-43.5 -29t-53 -10.5t-53 10.5t-43.5 29t-29 43.5t-10.5 53zM332 765q-13 13 -28 13t-28 -13l-82 -82q-10 -10 -10 -27q0 -15 11 -26t26 -11q13 0 26 11l57 56l56 -56q11 -11 26 -11t26.5 11t11.5 26q0 16 -11 27z" />
    <glyph glyph-name="otilde" unicode="&#xf5;" horiz-adv-x="612" 
d="M306 -6q59 0 111 21t91 59t61.5 90.5t22.5 115.5t-22.5 115.5t-61.5 90.5t-91 59t-111 21t-111 -21t-91 -59t-61.5 -90.5t-22.5 -115.5t22.5 -115.5t61.5 -90.5t91 -59t111 -21zM170 280q0 28 10.5 53t29 43.5t43.5 29t53 10.5t53 -10.5t43.5 -29t29 -43.5t10.5 -53
t-10.5 -53t-29 -43.5t-43.5 -29t-53 -10.5t-53 10.5t-43.5 29t-29 43.5t-10.5 53zM246 730q15 0 26 -11t11 -27q0 -41 25.5 -63.5t60.5 -22.5q18 0 34 7t28 18.5t18.5 27t6.5 33.5q0 11 -7 18t-18 7q-10 0 -17 -7t-7 -18q0 -15 -11 -26t-27 -11q-15 0 -26 11t-11 26
q0 42 -25.5 64.5t-60.5 22.5q-36 0 -61 -25t-25 -62q0 -10 6.5 -17t17.5 -7t18 7t7 17q0 16 11 27t26 11z" />
    <glyph glyph-name="odieresis" unicode="&#xf6;" horiz-adv-x="612" 
d="M306 -6q59 0 111 21t91 59t61.5 90.5t22.5 115.5t-22.5 115.5t-61.5 90.5t-91 59t-111 21t-111 -21t-91 -59t-61.5 -90.5t-22.5 -115.5t22.5 -115.5t61.5 -90.5t91 -59t111 -21zM170 280q0 28 10.5 53t29 43.5t43.5 29t53 10.5t53 -10.5t43.5 -29t29 -43.5t10.5 -53
t-10.5 -53t-29 -43.5t-43.5 -29t-53 -10.5t-53 10.5t-43.5 29t-29 43.5t-10.5 53zM367 718q-20 0 -34.5 -14.5t-14.5 -34.5t14.5 -34.5t34.5 -14.5t34.5 14.5t14.5 34.5t-14.5 34.5t-34.5 14.5zM244 718q-20 0 -34.5 -14.5t-14.5 -34.5t14.5 -34.5t34.5 -14.5t34.5 14.5
t14.5 34.5t-14.5 34.5t-34.5 14.5z" />
    <glyph glyph-name="oslash" unicode="&#xf8;" horiz-adv-x="612" 
d="M170 280q0 28 10.5 52.5t29 43t43 29.5t53.5 11q20 0 35 -4t30 -12l-184 -185q-8 14 -12.5 29.5t-4.5 35.5zM241 161l185 184q8 -14 12 -29.5t4 -35.5q0 -29 -11 -53.5t-29.5 -43t-43 -29t-52.5 -10.5q-21 0 -37.5 5t-27.5 12zM306 -6q59 0 111 21t91 59t61.5 90.5
t22.5 115.5q0 42 -12 87t-44 88l39 39q11 11 11 28q0 16 -11 27t-27 11q-17 0 -28 -11l-39 -40q-34 25 -76.5 41t-98.5 16q-59 0 -111 -21t-91 -59t-61.5 -90.5t-22.5 -115.5q0 -44 12.5 -87.5t44.5 -87.5l-40 -39q-11 -11 -11 -28q0 -16 11 -27t27 -11q17 0 28 11l40 40
q33 -25 76 -41t98 -16z" />
    <glyph glyph-name="ugrave" unicode="&#xf9;" horiz-adv-x="560" 
d="M280 -6q50 0 94 19t76.5 51.5t51.5 76.5t19 94v248q0 32 -22.5 54.5t-54.5 22.5q-16 0 -30.5 -6t-25 -16.5t-16.5 -24.5t-6 -30v-255q0 -35 -26 -57t-60 -22q-35 0 -60.5 22t-25.5 57v255q0 16 -6 30t-16.5 24.5t-25 16.5t-30.5 6q-32 0 -54.5 -22.5t-22.5 -54.5v-248
q0 -50 19 -94t51.5 -76.5t76.5 -51.5t94 -19zM256 629q11 -8 24 -8q9 0 17.5 7.5t8.5 19.5q0 11 -8 24l-50 79q-12 16 -32 16q-25 0 -40 -17.5t-15 -37.5q0 -9 4 -18t12 -14z" />
    <glyph glyph-name="uacute" unicode="&#xfa;" horiz-adv-x="560" 
d="M280 -6q50 0 94 19t76.5 51.5t51.5 76.5t19 94v248q0 32 -22.5 54.5t-54.5 22.5q-16 0 -30.5 -6t-25 -16.5t-16.5 -24.5t-6 -30v-255q0 -35 -26 -57t-60 -22q-35 0 -60.5 22t-25.5 57v255q0 16 -6 30t-16.5 24.5t-25 16.5t-30.5 6q-32 0 -54.5 -22.5t-22.5 -54.5v-248
q0 -50 19 -94t51.5 -76.5t76.5 -51.5t94 -19zM290 629l79 51q8 5 12 14t4 18q0 20 -15 37.5t-40 17.5q-20 0 -32 -16l-50 -79q-8 -13 -8 -24q0 -12 8.5 -19.5t17.5 -7.5q13 0 24 8z" />
    <glyph glyph-name="ucircumflex" unicode="&#xfb;" horiz-adv-x="560" 
d="M280 -6q50 0 94 19t76.5 51.5t51.5 76.5t19 94v248q0 32 -22.5 54.5t-54.5 22.5q-16 0 -30.5 -6t-25 -16.5t-16.5 -24.5t-6 -30v-255q0 -35 -26 -57t-60 -22q-35 0 -60.5 22t-25.5 57v255q0 16 -6 30t-16.5 24.5t-25 16.5t-30.5 6q-32 0 -54.5 -22.5t-22.5 -54.5v-248
q0 -50 19 -94t51.5 -76.5t76.5 -51.5t94 -19zM308 765q-13 13 -28 13t-28 -13l-82 -82q-10 -10 -10 -27q0 -15 11 -26t26 -11q13 0 26 11l57 56l56 -56q11 -11 26 -11t26.5 11t11.5 26q0 16 -11 27z" />
    <glyph glyph-name="udieresis" unicode="&#xfc;" horiz-adv-x="560" 
d="M280 -6q50 0 94 19t76.5 51.5t51.5 76.5t19 94v248q0 32 -22.5 54.5t-54.5 22.5q-16 0 -30.5 -6t-25 -16.5t-16.5 -24.5t-6 -30v-255q0 -35 -26 -57t-60 -22q-35 0 -60.5 22t-25.5 57v255q0 16 -6 30t-16.5 24.5t-25 16.5t-30.5 6q-32 0 -54.5 -22.5t-22.5 -54.5v-248
q0 -50 19 -94t51.5 -76.5t76.5 -51.5t94 -19zM340 718q-20 0 -34.5 -14.5t-14.5 -34.5t14.5 -34.5t34.5 -14.5t34.5 14.5t14.5 34.5t-14.5 34.5t-34.5 14.5zM217 718q-20 0 -34.5 -14.5t-14.5 -34.5t14.5 -34.5t34.5 -14.5t34.5 14.5t14.5 34.5t-14.5 34.5t-34.5 14.5z" />
    <glyph glyph-name="yacute" unicode="&#xfd;" horiz-adv-x="586" 
d="M300 234l-121 282q-9 21 -28 32.5t-42 11.5q-20 0 -34 -7.5t-24 -18.5t-14.5 -25t-4.5 -27q0 -16 8 -34l184 -381l-25 -54q-7 -15 -17.5 -24.5t-24.5 -9.5q-11 0 -18 3l-14 6t-16 6t-24 3q-30 0 -51 -21.5t-21 -51.5q0 -24 11.5 -42.5t30.5 -31.5t42.5 -19.5t47.5 -6.5
q65 0 105 32t67 87l249 505q7 15 7 33t-7 33t-18 25t-24.5 15.5t-27.5 5.5q-22 0 -40.5 -11.5t-28.5 -32.5zM322 629l79 51q8 5 12 14t4 18q0 20 -15 37.5t-40 17.5q-20 0 -32 -16l-50 -79q-8 -13 -8 -24q0 -12 8.5 -19.5t17.5 -7.5q13 0 24 8z" />
    <glyph glyph-name="thorn" unicode="&#xfe;" horiz-adv-x="633" 
d="M46 673v-786q0 -32 22.5 -54.5t54.5 -22.5q16 0 30.5 6t25 16.5t16.5 24.5t6 30v143q0 21 6 21q5 0 15 -8t27.5 -17.5t43 -17.5t61.5 -8q47 0 93.5 21t83 58.5t59.5 88.5t23 112t-23 112.5t-59.5 88.5t-83 58t-93.5 21q-36 0 -61.5 -8t-43 -17.5t-27.5 -17.5t-15 -8
q-6 0 -6 21v143q0 16 -6 30t-16.5 24.5t-25 16.5t-30.5 6q-32 0 -54.5 -22.5t-22.5 -54.5zM458 280q0 -27 -10 -50.5t-27.5 -41t-41 -27.5t-50.5 -10t-50 10t-40.5 27.5t-27.5 41t-10 50.5t10 50.5t27.5 41t40.5 27.5t50 10t50.5 -10t41 -27.5t27.5 -41t10 -50.5z" />
    <glyph glyph-name="ydieresis" unicode="&#xff;" horiz-adv-x="567" 
d="M281 234l-121 282q-6 15 -18 25t-26 14.5t-29.5 4t-30.5 -7.5q-29 -14 -39 -44.5t4 -59.5l184 -381l-25 -54q-6 -15 -17 -24.5t-25 -9.5q-11 0 -18 3l-14 6t-16 6t-24 3q-30 0 -51 -21.5t-21 -51.5q0 -24 11.5 -42.5t30.5 -31.5t42.5 -19.5t47.5 -6.5q65 0 105 32t67 87
l249 505q7 14 7.5 29.5t-4.5 29.5t-15 26t-24 19q-29 14 -59.5 3.5t-43.5 -39.5zM339 718q-20 0 -34.5 -14.5t-14.5 -34.5t14.5 -34.5t34.5 -14.5t34.5 14.5t14.5 34.5t-14.5 34.5t-34.5 14.5zM216 718q-20 0 -34.5 -14.5t-14.5 -34.5t14.5 -34.5t34.5 -14.5t34.5 14.5
t14.5 34.5t-14.5 34.5t-34.5 14.5z" />
    <glyph glyph-name="minus" unicode="&#xe000;" horiz-adv-x="390" 
d="M315 320q23 0 39 16t16 39t-16 39t-39 16h-240q-23 0 -39 -16t-16 -39t16 -39t39 -16h240z" />
    <glyph glyph-name="partialdiff" unicode="&#xe001;" horiz-adv-x="1132" 
d="M119 254q0 -28 19 -47t46 -19q28 0 47 19t19 47v431q0 26 -19.5 45.5t-46.5 19.5h-103q-26 0 -43.5 -17.5t-17.5 -43.5q0 -25 17.5 -43t43.5 -18h38v-374zM304 23l500 642q13 18 13 37q0 16 -6 28t-15.5 19t-20 10.5t-19.5 3.5q-14 0 -26.5 -6t-21.5 -17l-500 -642
q-12 -17 -12 -37q0 -28 19 -44.5t41 -16.5q14 0 26.5 6t21.5 17zM862 404q5 17 15.5 28t27.5 11t29 -13t12 -30q0 -21 -10.5 -29t-22.5 -14t-22.5 -15t-10.5 -33q0 -23 15.5 -31.5t34.5 -16.5t34.5 -23.5t15.5 -52.5q0 -30 -22 -52.5t-53 -22.5t-53 22.5t-22 52.5
q0 28 -20.5 48t-48.5 20q-27 0 -45.5 -20t-18.5 -48v-8q0 -32 15 -65.5t42.5 -61t65 -45.5t82.5 -18q43 0 81 16t66.5 43.5t45.5 65t17 80.5q0 34 -10 57.5t-23.5 38.5t-26 23t-18.5 10q24 14 34 40.5t10 50.5q0 33 -14 62t-38 50t-55 33t-65 12q-32 0 -63 -9.5t-55 -27.5
t-39 -43.5t-15 -58.5q0 -26 18.5 -47.5t46.5 -21.5q23 0 40.5 12t22.5 31z" />
    <glyph glyph-name="summation" unicode="&#xe002;" horiz-adv-x="1117" 
d="M119 254q0 -28 19 -47t46 -19q28 0 47 19t19 47v431q0 26 -19.5 45.5t-46.5 19.5h-103q-26 0 -43.5 -17.5t-17.5 -43.5q0 -25 17.5 -43t43.5 -18h38v-374zM304 23l500 642q13 18 13 37q0 16 -6 28t-15.5 19t-20 10.5t-19.5 3.5q-14 0 -26.5 -6t-21.5 -17l-500 -642
q-12 -17 -12 -37q0 -28 19 -44.5t41 -16.5q14 0 26.5 6t21.5 17zM741 235l154 207v-207h-154zM623 235v-47q0 -27 19 -46t46 -19h207v-57q0 -27 19 -46.5t47 -19.5q27 0 46 19.5t19 46.5v57h15q23 0 39.5 16.5t16.5 39.5t-16.5 39.5t-39.5 16.5h-15v263q0 27 -19 46t-46 19
h-85q-21 0 -35 -7.5t-19 -15.5l-175 -236q-15 -20 -19.5 -35t-4.5 -34z" />
    <glyph glyph-name="product" unicode="&#xe003;" horiz-adv-x="1331" 
d="M503 23l500 642q13 18 13 37q0 16 -6 28t-15.5 19t-20 10.5t-19.5 3.5q-14 0 -26.5 -6t-21.5 -17l-500 -642q-12 -17 -12 -37q0 -28 19 -44.5t41 -16.5q14 0 26.5 6t21.5 17zM1061 404q5 17 15.5 28t27.5 11t29 -13t12 -30q0 -21 -10.5 -29t-22.5 -14t-22.5 -15
t-10.5 -33q0 -23 15.5 -31.5t34.5 -16.5t34.5 -23.5t15.5 -52.5q0 -30 -22 -52.5t-53 -22.5t-53 22.5t-22 52.5q0 28 -20.5 48t-48.5 20q-27 0 -45.5 -20t-18.5 -48v-8q0 -32 15 -65.5t42.5 -61t65 -45.5t82.5 -18q43 0 81 16t66.5 43.5t45.5 65t17 80.5q0 34 -10 57.5
t-23.5 38.5t-26 23t-18.5 10q24 14 34 40.5t10 50.5q0 33 -14 62t-38 50t-55 33t-65 12q-32 0 -63 -9.5t-55 -27.5t-39 -43.5t-15 -58.5q0 -26 18.5 -47.5t46.5 -21.5q23 0 40.5 12t22.5 31zM49 295q-8 -8 -13 -18.5t-5 -24.5q0 -26 17.5 -43.5t43.5 -17.5h274q26 0 44 17.5
t18 43.5q0 25 -18 43t-44 18h-123l105 98q38 35 60 74.5t22 81.5q0 41 -16 77t-43.5 62.5t-64.5 41.5t-78 15q-43 0 -80.5 -16.5t-66 -45t-45 -66t-16.5 -80.5q0 -27 19 -46.5t46 -19.5t46.5 19.5t19.5 46.5q0 39 23 62.5t52 23.5q30 0 51.5 -20.5t21.5 -49.5q0 -21 -8 -36
t-23 -29z" />
    <glyph glyph-name="pi" unicode="&#xe004;" horiz-adv-x="1260" 
d="M447 23l500 642q13 18 13 37q0 16 -6 28t-15.5 19t-20 10.5t-19.5 3.5q-14 0 -26.5 -6t-21.5 -17l-500 -642q-12 -17 -12 -37q0 -28 19 -44.5t41 -16.5q14 0 26.5 6t21.5 17zM884 235l154 207v-207h-154zM766 235v-47q0 -27 19 -46t46 -19h207v-57q0 -27 19 -46.5
t47 -19.5q27 0 46 19.5t19 46.5v57h15q23 0 39.5 16.5t16.5 39.5t-16.5 39.5t-39.5 16.5h-15v263q0 27 -19 46t-46 19h-85q-21 0 -35 -7.5t-19 -15.5l-175 -236q-15 -20 -19.5 -35t-4.5 -34zM185 598q5 17 15.5 28t27.5 11t29 -13t12 -30q0 -21 -10.5 -29t-22.5 -14
t-22.5 -15t-10.5 -33q0 -23 15.5 -31.5t34.5 -16.5t34.5 -23.5t15.5 -52.5q0 -30 -22 -52.5t-53 -22.5t-53 22.5t-22 52.5q0 28 -20.5 48t-48.5 20q-27 0 -45.5 -20t-18.5 -48v-8q0 -32 15 -65.5t42.5 -61t65 -45.5t82.5 -18q43 0 81 16t66.5 43.5t45.5 65t17 80.5
q0 34 -10 57.5t-23.5 38.5t-26 23t-18.5 10q24 14 34 40.5t10 50.5q0 33 -14 62t-38 50t-55 33t-65 12q-32 0 -63 -9.5t-55 -27.5t-39 -43.5t-15 -58.5q0 -26 18.5 -47.5t46.5 -21.5q23 0 40.5 12t22.5 31z" />
    <glyph glyph-name="integral" unicode="&#xe005;" horiz-adv-x="842" 
d="M46 750v-750h750v750h-750zM76 720h689v-690h-689v690z" />
    <glyph glyph-name="radical" unicode="&#xe006;" horiz-adv-x="898" 
d="M12 432v-155l277 -277l597 597v153l-597 -597z" />
    <glyph glyph-name="approxequal" unicode="&#xe007;" horiz-adv-x="804" 
d="M477 300h-150v150h150v-150zM177 525q-31 0 -53 22t-22 53t22 53t53 22t53 -22t22 -53v-75h-75zM252 300h-75q-31 0 -58.5 -12t-47.5 -32t-32 -47.5t-12 -58.5t12 -59t32 -48.5t47.5 -32.5t58.5 -10q31 1 58.5 13t47.5 32t32 47t12 58v75h150v-75q0 -31 12 -58.5
t32 -47.5t47.5 -32t58.5 -12t58.5 12t47.5 32t32 47.5t12 58.5t-12 58.5t-32 47.5t-47.5 32t-58.5 12h-75v150h75q31 0 58.5 12t47.5 32t32 47.5t12 58.5t-12 58.5t-32 47.5t-47.5 32t-58.5 12t-58.5 -12t-47.5 -32t-32 -47.5t-12 -58.5v-75h-150v75q0 31 -12 58.5t-32 47.5
t-47.5 32t-58.5 12t-58.5 -12t-47.5 -32t-32 -47.5t-12 -58.5q0 -32 12 -59t33 -47.5t49 -32t59 -11.5h72v-150zM252 150q0 -31 -22 -53t-53 -22t-53 22t-22 53t22 53t53 22h75v-75zM627 225q31 0 53 -22t22 -53t-22 -53t-53 -22t-53 22t-22 53v75h75zM552 600q0 31 22 53
t53 22t53 -22t22 -53t-22 -53t-53 -22h-75v75z" />
    <glyph glyph-name="Delta" unicode="&#xe008;" horiz-adv-x="1143" 
d="M119 254q0 -28 19 -47t46 -19q28 0 47 19t19 47v431q0 26 -19.5 45.5t-46.5 19.5h-103q-26 0 -43.5 -17.5t-17.5 -43.5q0 -25 17.5 -43t43.5 -18h38v-374zM304 23l500 642q13 18 13 37q0 16 -6 28t-15.5 19t-20 10.5t-19.5 3.5q-14 0 -26.5 -6t-21.5 -17l-500 -642
q-12 -17 -12 -37q0 -28 19 -44.5t41 -16.5q14 0 26.5 6t21.5 17zM742 104q-8 -8 -13 -18.5t-5 -24.5q0 -26 17.5 -43.5t43.5 -17.5h274q26 0 44 17.5t18 43.5q0 25 -18 43t-44 18h-123l105 98q38 35 60 74.5t22 81.5q0 41 -16 77t-43.5 62.5t-64.5 41.5t-78 15
q-43 0 -80.5 -16.5t-66 -45t-45 -66t-16.5 -80.5q0 -27 19 -46.5t46 -19.5t46.5 19.5t19.5 46.5q0 39 23 62.5t52 23.5q30 0 51.5 -20.5t21.5 -49.5q0 -21 -8 -36t-23 -29z" />
    <glyph glyph-name="nonbreakingspace" unicode="&#xe009;" horiz-adv-x="250" 
 />
    <glyph glyph-name="lozenge" unicode="&#xe00a;" horiz-adv-x="774" 
d="M387 0l375 375l-375 375l-375 -375zM74 375l313 313l312 -313l-312 -312z" />
    </font>
</defs>
</svg>
