<?xml version="1.0" encoding="utf-8"?>
<svg id="Capa_1" enable-background="new 0 0 512 512" height="512" viewBox="0 0 512 512" width="512" xmlns="http://www.w3.org/2000/svg">
  <g style="" transform="matrix(-1, 0, 0, 1, 515.192017, 0)">
    <g>
      <g>
        <g>
          <g>
            <g>
              <g>
                <circle cx="256" cy="256" fill="#ffce00" r="256"/>
              </g>
            </g>
          </g>
        </g>
      </g>
    </g>
    <path d="m392.475 168.521-121.011-121.011-13.874 69.004 13.874 45.798 98.773 98.773-13.699 13.002-167.164-167.164-73.561 74.549-11.012 115.756 39.507 39.507-52.139 41.225 132.09 132.09c10.4 1.286 20.993 1.948 31.74 1.948 141.385 0 256-114.615 256-256 0-11.028-.697-21.894-2.05-32.554l-89.383-89.382z" fill="#ffa300"/>
    <path d="m271.841 89.56 20.836-20.836-21.213-21.214-57.399 57.4 57.399 57.401 21.213-21.213-21.436-21.437c47.965 5.475 90.101 35.974 109.973 80.803l27.426-12.157c-24.598-55.492-77.198-92.962-136.799-98.747z" fill="#636978"/>
    <path d="m236.719 349.091-21.213 21.213 21.733 21.733c-20.029-2.693-39.198-9.766-56.247-20.846-21.669-14.084-38.882-33.875-49.775-57.233l-27.188 12.68c13.271 28.455 34.231 52.559 60.615 69.707 21.599 14.038 45.979 22.802 71.418 25.781l-20.554 20.555 21.214 21.213 57.399-57.401z" fill="#414952"/>
    <path d="m463.783 272.573-57.4-57.399-57.401 57.399 21.213 21.214 21.811-21.811c-2.631 22.816-10.906 44.472-24.32 63.374-16.161 22.774-38.486 39.89-64.562 49.498l10.373 28.15c31.777-11.709 58.977-32.555 78.655-60.286 16.787-23.656 26.973-50.839 29.893-79.452l20.526 20.526z" fill="#414952"/>
    <path d="m119.317 240.288c5.17-45.504 32.59-85.463 74.14-106.635l-13.62-26.729c-27.066 13.792-49.901 34.712-66.037 60.5-13.632 21.788-21.986 46.347-24.536 71.842l-20.65-20.649-21.214 21.213 57.401 57.399 57.4-57.4-21.213-21.213z" fill="#636978"/>
    <g>
      <ellipse cx="163.518" cy="137.527" fill="#fe6a16" rx="40.072" ry="40.072" transform="matrix(.924 -.383 .383 .924 -40.182 73.044)"/>
    </g>
    <g>
      <ellipse cx="337.49" cy="382.359" fill="#fe6a16" rx="40.072" ry="40.072" transform="matrix(.924 -.383 .383 .924 -120.633 158.257)"/>
    </g>
    <g>
      <path d="m92.169 306.613h71.348v71.348h-71.348z" fill="#7584f2"/>
    </g>
    <g>
      <path d="m163.518 377.961h-71.349l71.349-71.348z" fill="#606aea"/>
    </g>
    <g>
      <path d="m349.219 134.063h71.348v71.348h-71.348z" fill="#7584f2"/>
    </g>
    <g>
      <path d="m420.567 205.412h-71.348l71.348-71.349z" fill="#606aea"/>
    </g>
  </g>
</svg>